<svg width="101" height="100" viewBox="0 0 101 100" fill="none" xmlns="http://www.w3.org/2000/svg">
<rect x="0.362305" width="99.7181" height="99.7181" fill="#222222"/>
<path d="M19.4375 58V40.5455H27.0057C28.3352 40.5455 29.4517 40.7244 30.3551 41.0824C31.2642 41.4403 31.9489 41.946 32.4091 42.5994C32.875 43.2528 33.108 44.0227 33.108 44.9091C33.108 45.5511 32.9659 46.1364 32.6818 46.6648C32.4034 47.1932 32.0114 47.6364 31.5057 47.9943C31 48.3466 30.4091 48.5909 29.733 48.7273V48.8977C30.483 48.9261 31.1648 49.1165 31.7784 49.4688C32.392 49.8153 32.8807 50.2955 33.2443 50.9091C33.608 51.517 33.7898 52.233 33.7898 53.0568C33.7898 54.0114 33.5398 54.8608 33.0398 55.6051C32.5455 56.3494 31.8409 56.9347 30.9261 57.3608C30.0114 57.7869 28.9205 58 27.6534 58H19.4375ZM24.1761 54.2159H26.392C27.1875 54.2159 27.7841 54.0682 28.1818 53.7727C28.5795 53.4716 28.7784 53.0284 28.7784 52.4432C28.7784 52.0341 28.6847 51.6875 28.4972 51.4034C28.3097 51.1193 28.0426 50.9034 27.696 50.7557C27.3551 50.608 26.9432 50.5341 26.4602 50.5341H24.1761V54.2159ZM24.1761 47.6023H26.1193C26.5341 47.6023 26.9006 47.5369 27.2188 47.4062C27.5369 47.2756 27.7841 47.0881 27.9602 46.8438C28.142 46.5938 28.233 46.2898 28.233 45.9318C28.233 45.392 28.0398 44.9801 27.6534 44.696C27.267 44.4062 26.7784 44.2614 26.1875 44.2614H24.1761V47.6023ZM42.1847 58H35.4688V40.5455H42.1165C43.9119 40.5455 45.4631 40.8949 46.7699 41.5938C48.0824 42.2869 49.0938 43.2869 49.804 44.5938C50.5199 45.8949 50.8778 47.4545 50.8778 49.2727C50.8778 51.0909 50.5227 52.6534 49.8125 53.9602C49.1023 55.2614 48.0966 56.2614 46.7955 56.9602C45.4943 57.6534 43.9574 58 42.1847 58ZM40.2074 53.9773H42.0142C42.8778 53.9773 43.6136 53.8381 44.2216 53.5597C44.8352 53.2812 45.3011 52.8011 45.6193 52.1193C45.9432 51.4375 46.1051 50.4886 46.1051 49.2727C46.1051 48.0568 45.9403 47.108 45.6108 46.4261C45.2869 45.7443 44.8097 45.2642 44.179 44.9858C43.554 44.7074 42.7869 44.5682 41.8778 44.5682H40.2074V53.9773ZM53.0703 58V40.5455H57.8089V54.1818H64.8658V58H53.0703ZM66.7812 58V40.5455H74.3153C75.6108 40.5455 76.7443 40.7812 77.7159 41.2528C78.6875 41.7244 79.4432 42.4034 79.983 43.2898C80.5227 44.1761 80.7926 45.2386 80.7926 46.4773C80.7926 47.7273 80.5142 48.7812 79.9574 49.6392C79.4063 50.4972 78.6307 51.1449 77.6307 51.5824C76.6364 52.0199 75.4744 52.2386 74.1449 52.2386H69.6449V48.5568H73.1903C73.7472 48.5568 74.2216 48.4886 74.6136 48.3523C75.0114 48.2102 75.3153 47.9858 75.5256 47.679C75.7415 47.3722 75.8494 46.9716 75.8494 46.4773C75.8494 45.9773 75.7415 45.571 75.5256 45.2585C75.3153 44.9403 75.0114 44.7074 74.6136 44.5597C74.2216 44.4062 73.7472 44.3295 73.1903 44.3295H71.5199V58H66.7812ZM77.0085 49.9886L81.3722 58H76.2244L71.9631 49.9886H77.0085Z" fill="#00FFB2"/>
</svg>
