<svg width="101" height="100" viewBox="0 0 101 100" fill="none" xmlns="http://www.w3.org/2000/svg">
<rect x="0.681641" width="99.7181" height="99.7181" fill="#222222"/>
<path d="M28.5859 58V40.5455H36.1541C37.4837 40.5455 38.6001 40.7244 39.5036 41.0824C40.4126 41.4403 41.0973 41.946 41.5575 42.5994C42.0234 43.2528 42.2564 44.0227 42.2564 44.9091C42.2564 45.5511 42.1143 46.1364 41.8303 46.6648C41.5518 47.1932 41.1598 47.6364 40.6541 47.9943C40.1484 48.3466 39.5575 48.5909 38.8814 48.7273V48.8977C39.6314 48.9261 40.3132 49.1165 40.9268 49.4688C41.5405 49.8153 42.0291 50.2955 42.3928 50.9091C42.7564 51.517 42.9382 52.233 42.9382 53.0568C42.9382 54.0114 42.6882 54.8608 42.1882 55.6051C41.6939 56.3494 40.9893 56.9347 40.0746 57.3608C39.1598 57.7869 38.0689 58 36.8018 58H28.5859ZM33.3246 54.2159H35.5405C36.3359 54.2159 36.9325 54.0682 37.3303 53.7727C37.728 53.4716 37.9268 53.0284 37.9268 52.4432C37.9268 52.0341 37.8331 51.6875 37.6456 51.4034C37.4581 51.1193 37.1911 50.9034 36.8445 50.7557C36.5036 50.608 36.0916 50.5341 35.6087 50.5341H33.3246V54.2159ZM33.3246 47.6023H35.2678C35.6825 47.6023 36.049 47.5369 36.3672 47.4062C36.6854 47.2756 36.9325 47.0881 37.1087 46.8438C37.2905 46.5938 37.3814 46.2898 37.3814 45.9318C37.3814 45.392 37.1882 44.9801 36.8018 44.696C36.4155 44.4062 35.9268 44.2614 35.3359 44.2614H33.3246V47.6023ZM44.6172 58V40.5455H56.8899V44.3636H49.3558V47.3636H56.1399V51.1818H49.3558V58H44.6172ZM58.6328 58V40.5455H66.1669C67.4624 40.5455 68.5959 40.7812 69.5675 41.2528C70.5391 41.7244 71.2947 42.4034 71.8345 43.2898C72.3743 44.1761 72.6442 45.2386 72.6442 46.4773C72.6442 47.7273 72.3658 48.7812 71.8089 49.6392C71.2578 50.4972 70.4822 51.1449 69.4822 51.5824C68.4879 52.0199 67.326 52.2386 65.9964 52.2386H61.4964V48.5568H65.0419C65.5987 48.5568 66.0732 48.4886 66.4652 48.3523C66.8629 48.2102 67.1669 47.9858 67.3771 47.679C67.593 47.3722 67.701 46.9716 67.701 46.4773C67.701 45.9773 67.593 45.571 67.3771 45.2585C67.1669 44.9403 66.8629 44.7074 66.4652 44.5597C66.0732 44.4062 65.5987 44.3295 65.0419 44.3295H63.3714V58H58.6328ZM68.8601 49.9886L73.2237 58H68.076L63.8146 49.9886H68.8601Z" fill="#00FFB2"/>
</svg>
