<svg width="200" height="200" viewBox="0 0 200 200" fill="none" xmlns="http://www.w3.org/2000/svg">
<circle cx="100" cy="100" r="100" fill="#0A0B0D"/>
<path d="M42.9738 144V107.636H57.5335C60.2086 107.636 62.4399 108.033 64.2273 108.826C66.0148 109.619 67.3583 110.72 68.2579 112.129C69.1575 113.525 69.6073 115.135 69.6073 116.958C69.6073 118.379 69.3232 119.627 68.755 120.705C68.1869 121.77 67.4056 122.646 66.4113 123.332C65.4288 124.007 64.3043 124.487 63.0377 124.771V125.126C64.4227 125.185 65.7188 125.576 66.9262 126.298C68.1454 127.02 69.1338 128.032 69.8914 129.334C70.649 130.624 71.0278 132.163 71.0278 133.95C71.0278 135.88 70.5484 137.602 69.5896 139.117C68.6426 140.621 67.2399 141.81 65.3815 142.686C63.523 143.562 61.2326 144 58.51 144H42.9738ZM50.662 137.714H56.9298C59.0723 137.714 60.6348 137.306 61.6173 136.489C62.5997 135.661 63.091 134.56 63.091 133.187C63.091 132.181 62.8483 131.293 62.363 130.523C61.8777 129.754 61.1852 129.15 60.2856 128.712C59.3978 128.274 58.3384 128.055 57.1073 128.055H50.662V137.714ZM50.662 122.853H56.3616C57.4151 122.853 58.3502 122.67 59.167 122.303C59.9956 121.924 60.6466 121.391 61.1201 120.705C61.6054 120.018 61.8481 119.195 61.8481 118.237C61.8481 116.923 61.3805 115.863 60.4454 115.058C59.5221 114.253 58.2082 113.851 56.5036 113.851H50.662V122.853ZM82.1 107.636L90.8891 135.264H91.2265L100.033 107.636H108.556L96.0205 144H86.1128L73.5596 107.636H82.1ZM120.121 107.636V144H112.433V107.636H120.121ZM132.516 107.636L141.305 135.264H141.642L150.449 107.636H158.972L146.437 144H136.529L123.976 107.636H132.516Z" fill="#46FFC8"/>
<path d="M117.901 58.2214C118.691 52.9361 114.667 50.0949 109.165 48.1994L110.95 41.0399L106.592 39.9537L104.854 46.9247C103.708 46.6392 102.531 46.3698 101.362 46.103L103.112 39.0861L98.7567 38L96.9705 45.1571C96.0222 44.9411 95.0913 44.7276 94.1876 44.503L94.1926 44.4806L88.1824 42.9799L87.0231 47.6347C87.0231 47.6347 90.2565 48.3757 90.1883 48.4216C91.9534 48.8623 92.2724 50.0303 92.219 50.9563L90.1858 59.1126C90.3074 59.1437 90.4651 59.1883 90.6389 59.2578C90.4936 59.2219 90.3385 59.1821 90.1783 59.1437L87.3284 70.5695C87.1124 71.1057 86.565 71.91 85.3312 71.6047C85.3747 71.668 82.1635 70.814 82.1635 70.814L80 75.8026L85.6713 77.2164C86.7264 77.4808 87.7604 77.7576 88.7782 78.0183L86.9746 85.2598L91.3278 86.3459L93.1139 79.1813C94.3031 79.5041 95.4574 79.802 96.587 80.0825L94.807 87.2135L99.1651 88.2996L100.969 81.0718C108.4 82.4781 113.988 81.9109 116.34 75.1894C118.236 69.7775 116.246 66.6558 112.336 64.6201C115.184 63.9635 117.328 62.0904 117.901 58.2214ZM107.943 72.1843C106.597 77.5962 97.4844 74.6706 94.5302 73.937L96.9234 64.3433C99.8776 65.0806 109.351 66.5403 107.943 72.1843ZM109.291 58.1432C108.062 63.066 100.478 60.5649 98.0182 59.9517L100.188 51.2505C102.648 51.8637 110.571 53.0081 109.291 58.1432Z" fill="#46FFC8"/>
</svg>
