<svg width="100" height="100" viewBox="0 0 100 100" fill="none" xmlns="http://www.w3.org/2000/svg">
<rect width="99.7181" height="99.7181" fill="#222222"/>
<path d="M17.168 58V40.5455H24.7362C26.0657 40.5455 27.1822 40.7244 28.0856 41.0824C28.9947 41.4403 29.6793 41.946 30.1396 42.5994C30.6055 43.2528 30.8384 44.0227 30.8384 44.9091C30.8384 45.5511 30.6964 46.1364 30.4123 46.6648C30.1339 47.1932 29.7418 47.6364 29.2362 47.9943C28.7305 48.3466 28.1396 48.5909 27.4634 48.7273V48.8977C28.2134 48.9261 28.8952 49.1165 29.5089 49.4688C30.1225 49.8153 30.6112 50.2955 30.9748 50.9091C31.3384 51.517 31.5202 52.233 31.5202 53.0568C31.5202 54.0114 31.2702 54.8608 30.7702 55.6051C30.2759 56.3494 29.5714 56.9347 28.6566 57.3608C27.7418 57.7869 26.6509 58 25.3839 58H17.168ZM21.9066 54.2159H24.1225C24.918 54.2159 25.5146 54.0682 25.9123 53.7727C26.31 53.4716 26.5089 53.0284 26.5089 52.4432C26.5089 52.0341 26.4151 51.6875 26.2276 51.4034C26.0401 51.1193 25.7731 50.9034 25.4265 50.7557C25.0856 50.608 24.6737 50.5341 24.1907 50.5341H21.9066V54.2159ZM21.9066 47.6023H23.8498C24.2646 47.6023 24.631 47.5369 24.9492 47.4062C25.2674 47.2756 25.5146 47.0881 25.6907 46.8438C25.8725 46.5938 25.9634 46.2898 25.9634 45.9318C25.9634 45.392 25.7702 44.9801 25.3839 44.696C24.9975 44.4062 24.5089 44.2614 23.918 44.2614H21.9066V47.6023ZM37.9719 40.5455L41.5515 52.8523H41.6879L45.2674 40.5455H50.6197L44.8583 58H38.381L32.6197 40.5455H37.9719ZM52.3008 58V40.5455H59.8349C61.1303 40.5455 62.2638 40.8011 63.2354 41.3125C64.207 41.8239 64.9627 42.5426 65.5025 43.4688C66.0423 44.3949 66.3121 45.4773 66.3121 46.7159C66.3121 47.9659 66.0337 49.0483 65.4769 49.9631C64.9258 50.8778 64.1502 51.5824 63.1502 52.0767C62.1559 52.571 60.994 52.8182 59.6644 52.8182H55.1644V49.1364H58.7099C59.2667 49.1364 59.7411 49.0398 60.1332 48.8466C60.5309 48.6477 60.8349 48.3665 61.0451 48.0028C61.261 47.6392 61.369 47.2102 61.369 46.7159C61.369 46.2159 61.261 45.7898 61.0451 45.4375C60.8349 45.0795 60.5309 44.8068 60.1332 44.6193C59.7411 44.4261 59.2667 44.3295 58.7099 44.3295H57.0394V58H52.3008ZM68.0508 58V40.5455H75.5849C76.8803 40.5455 78.0138 40.7812 78.9854 41.2528C79.957 41.7244 80.7127 42.4034 81.2525 43.2898C81.7923 44.1761 82.0621 45.2386 82.0621 46.4773C82.0621 47.7273 81.7837 48.7812 81.2269 49.6392C80.6758 50.4972 79.9002 51.1449 78.9002 51.5824C77.9059 52.0199 76.744 52.2386 75.4144 52.2386H70.9144V48.5568H74.4599C75.0167 48.5568 75.4911 48.4886 75.8832 48.3523C76.2809 48.2102 76.5849 47.9858 76.7951 47.679C77.011 47.3722 77.119 46.9716 77.119 46.4773C77.119 45.9773 77.011 45.571 76.7951 45.2585C76.5849 44.9403 76.2809 44.7074 75.8832 44.5597C75.4911 44.4062 75.0167 44.3295 74.4599 44.3295H72.7894V58H68.0508ZM78.2781 49.9886L82.6417 58H77.494L73.2326 49.9886H78.2781Z" fill="#00FFB2"/>
</svg>
