<svg width="101" height="100" viewBox="0 0 101 100" fill="none" xmlns="http://www.w3.org/2000/svg">
<rect x="0.362305" width="99.7181" height="99.7181" fill="#222222"/>
<path d="M19.4883 58V40.5455H32.0678V44.3636H24.2269V47.3636H31.4201V51.1818H24.2269V54.1818H32.0337V58H19.4883ZM41.1339 58H34.418V40.5455H41.0657C42.8612 40.5455 44.4123 40.8949 45.7191 41.5938C47.0316 42.2869 48.043 43.2869 48.7532 44.5938C49.4691 45.8949 49.8271 47.4545 49.8271 49.2727C49.8271 51.0909 49.4719 52.6534 48.7617 53.9602C48.0515 55.2614 47.0458 56.2614 45.7447 56.9602C44.4435 57.6534 42.9066 58 41.1339 58ZM39.1566 53.9773H40.9634C41.8271 53.9773 42.5629 53.8381 43.1708 53.5597C43.7844 53.2812 44.2504 52.8011 44.5685 52.1193C44.8924 51.4375 45.0543 50.4886 45.0543 49.2727C45.0543 48.0568 44.8896 47.108 44.56 46.4261C44.2362 45.7443 43.7589 45.2642 43.1282 44.9858C42.5032 44.7074 41.7362 44.5682 40.8271 44.5682H39.1566V53.9773ZM52.0195 58V40.5455H56.7582V54.1818H63.815V58H52.0195ZM65.7305 58V40.5455H73.2646C74.56 40.5455 75.6935 40.7812 76.6651 41.2528C77.6367 41.7244 78.3924 42.4034 78.9322 43.2898C79.4719 44.1761 79.7418 45.2386 79.7418 46.4773C79.7418 47.7273 79.4634 48.7812 78.9066 49.6392C78.3555 50.4972 77.5799 51.1449 76.5799 51.5824C75.5856 52.0199 74.4237 52.2386 73.0941 52.2386H68.5941V48.5568H72.1396C72.6964 48.5568 73.1708 48.4886 73.5629 48.3523C73.9606 48.2102 74.2646 47.9858 74.4748 47.679C74.6907 47.3722 74.7987 46.9716 74.7987 46.4773C74.7987 45.9773 74.6907 45.571 74.4748 45.2585C74.2646 44.9403 73.9606 44.7074 73.5629 44.5597C73.1708 44.4062 72.6964 44.3295 72.1396 44.3295H70.4691V58H65.7305ZM75.9577 49.9886L80.3214 58H75.1737L70.9123 49.9886H75.9577Z" fill="#00FFB2"/>
</svg>
