<svg width="101" height="100" viewBox="0 0 101 100" fill="none" xmlns="http://www.w3.org/2000/svg">
<rect x="0.682129" width="99.7181" height="99.7181" fill="#222222"/>
<path d="M29.1367 56V38.5455H41.7163V42.3636H33.8754V45.3636H41.0685V49.1818H33.8754V52.1818H41.6822V56H29.1367ZM44.0664 56V38.5455H56.3391V42.3636H48.805V45.3636H55.5891V49.1818H48.805V56H44.0664ZM58.082 56V38.5455H65.6161C66.9116 38.5455 68.0451 38.7812 69.0167 39.2528C69.9883 39.7244 70.744 40.4034 71.2837 41.2898C71.8235 42.1761 72.0934 43.2386 72.0934 44.4773C72.0934 45.7273 71.815 46.7812 71.2582 47.6392C70.707 48.4972 69.9315 49.1449 68.9315 49.5824C67.9371 50.0199 66.7752 50.2386 65.4457 50.2386H60.9457V46.5568H64.4911C65.0479 46.5568 65.5224 46.4886 65.9144 46.3523C66.3121 46.2102 66.6161 45.9858 66.8263 45.679C67.0423 45.3722 67.1502 44.9716 67.1502 44.4773C67.1502 43.9773 67.0423 43.571 66.8263 43.2585C66.6161 42.9403 66.3121 42.7074 65.9144 42.5597C65.5224 42.4062 65.0479 42.3295 64.4911 42.3295H62.8207V56H58.082ZM68.3093 47.9886L72.6729 56H67.5252L63.2638 47.9886H68.3093Z" fill="#00FFB2"/>
</svg>
