<svg width="200" height="200" viewBox="0 0 200 200" fill="none" xmlns="http://www.w3.org/2000/svg">
<circle cx="100" cy="100" r="100" fill="#0A0B0D"/>
<g clip-path="url(#clip0_820_792)">
<path d="M99.4957 33L99.1133 34.2719V71.1748L99.4957 71.5484L116.99 61.4229L99.4957 33Z" fill="#46FFC8"/>
<path d="M99.4949 33L82 61.4229L99.4949 71.5484V53.6367V33Z" fill="#46FFC8"/>
<path d="M99.4948 74.7916L99.2793 75.0489V88.1943L99.4948 88.8104L117 64.6714L99.4948 74.7916Z" fill="#46FFC8"/>
<path d="M99.4949 88.8104V74.7916L82 64.6714L99.4949 88.8104Z" fill="#46FFC8"/>
<path d="M99.4941 71.5484L116.989 61.4229L99.4941 53.6367V71.5484Z" fill="#46FFC8"/>
<path d="M82 61.4229L99.4949 71.5484V53.6367L82 61.4229Z" fill="#46FFC8"/>
</g>
<path d="M44.1945 144V107.636H68.6973V113.975H51.8827V122.64H67.4367V128.979H51.8827V137.661H68.7684V144H44.1945ZM80.8793 107.636L89.6684 135.264H90.0058L98.8126 107.636H107.335L94.7998 144H84.8921L72.3389 107.636H80.8793ZM118.9 107.636V144H111.212V107.636H118.9ZM131.295 107.636L140.084 135.264H140.422L149.229 107.636H157.751L145.216 144H135.308L122.755 107.636H131.295Z" fill="#46FFC8"/>
<defs>
<clipPath id="clip0_820_792">
<rect width="35" height="55.8108" fill="white" transform="translate(82 33)"/>
</clipPath>
</defs>
</svg>
