<svg width="100" height="100" viewBox="0 0 100 100" fill="none" xmlns="http://www.w3.org/2000/svg">
<rect width="99.7181" height="99.7181" fill="#222222"/>
<path d="M18.2188 56V38.5455H30.7983V42.3636H22.9574V45.3636H30.1506V49.1818H22.9574V52.1818H30.7642V56H18.2188ZM37.9212 38.5455L41.5007 50.8523H41.6371L45.2166 38.5455H50.5689L44.8075 56H38.3303L32.5689 38.5455H37.9212ZM52.25 56V38.5455H59.7841C61.0795 38.5455 62.2131 38.8011 63.1847 39.3125C64.1563 39.8239 64.9119 40.5426 65.4517 41.4688C65.9915 42.3949 66.2614 43.4773 66.2614 44.7159C66.2614 45.9659 65.983 47.0483 65.4261 47.9631C64.875 48.8778 64.0994 49.5824 63.0994 50.0767C62.1051 50.571 60.9432 50.8182 59.6136 50.8182H55.1136V47.1364H58.6591C59.2159 47.1364 59.6903 47.0398 60.0824 46.8466C60.4801 46.6477 60.7841 46.3665 60.9943 46.0028C61.2102 45.6392 61.3182 45.2102 61.3182 44.7159C61.3182 44.2159 61.2102 43.7898 60.9943 43.4375C60.7841 43.0795 60.4801 42.8068 60.0824 42.6193C59.6903 42.4261 59.2159 42.3295 58.6591 42.3295H56.9886V56H52.25ZM68 56V38.5455H75.5341C76.8295 38.5455 77.9631 38.7812 78.9347 39.2528C79.9063 39.7244 80.6619 40.4034 81.2017 41.2898C81.7415 42.1761 82.0114 43.2386 82.0114 44.4773C82.0114 45.7273 81.733 46.7812 81.1761 47.6392C80.625 48.4972 79.8494 49.1449 78.8494 49.5824C77.8551 50.0199 76.6932 50.2386 75.3636 50.2386H70.8636V46.5568H74.4091C74.9659 46.5568 75.4403 46.4886 75.8324 46.3523C76.2301 46.2102 76.5341 45.9858 76.7443 45.679C76.9602 45.3722 77.0682 44.9716 77.0682 44.4773C77.0682 43.9773 76.9602 43.571 76.7443 43.2585C76.5341 42.9403 76.2301 42.7074 75.8324 42.5597C75.4403 42.4062 74.9659 42.3295 74.4091 42.3295H72.7386V56H68ZM78.2273 47.9886L82.5909 56H77.4432L73.1818 47.9886H78.2273Z" fill="#00FFB2"/>
</svg>
