<svg width="2599" height="448" viewBox="0 0 2599 448" fill="none" xmlns="http://www.w3.org/2000/svg">
<g filter="url(#filter0_b)">
<rect x="5" y="33" width="43.2274" height="43.3757" fill="black"/>
<rect x="2.5" y="30.5" width="48.2274" height="48.3757" stroke="#00FFB2" stroke-opacity="0.4" stroke-width="5"/>
</g>
<g filter="url(#filter1_b)">
<rect x="132.571" y="96.7852" width="43.2274" height="44.9675" fill="black"/>
<rect x="130.071" y="94.2852" width="48.2274" height="49.9675" stroke="#00FFB2" stroke-opacity="0.4" stroke-width="5"/>
</g>
<g filter="url(#filter2_b)">
<rect x="132.571" y="161.69" width="43.2274" height="43.3757" fill="black"/>
<rect x="130.071" y="159.19" width="48.2274" height="48.3757" stroke="#00FFB2" stroke-opacity="0.4" stroke-width="5"/>
</g>
<g filter="url(#filter3_b)">
<rect x="68.7861" y="161.69" width="43.2274" height="43.3757" fill="black"/>
<rect x="66.2861" y="159.19" width="48.2274" height="48.3757" stroke="#00FFB2" stroke-opacity="0.4" stroke-width="5"/>
</g>
<g filter="url(#filter4_b)">
<rect x="5" y="161.69" width="43.2274" height="43.3757" fill="black"/>
<rect x="2.5" y="159.19" width="48.2274" height="48.3757" stroke="#00FFB2" stroke-opacity="0.4" stroke-width="5"/>
</g>
<g filter="url(#filter5_b)">
<rect x="5" y="96.7852" width="43.2274" height="44.9675" fill="black"/>
<rect x="2.5" y="94.2852" width="48.2274" height="49.9675" stroke="#00FFB2" stroke-opacity="0.4" stroke-width="5"/>
</g>
<g filter="url(#filter6_b)">
<rect x="195.201" y="33" width="44.7993" height="43.3757" fill="black"/>
<rect x="192.701" y="30.5" width="49.7993" height="48.3757" stroke="#00FFB2" stroke-opacity="0.4" stroke-width="5"/>
</g>
<g filter="url(#filter7_b)">
<rect x="132.324" y="33" width="43.2274" height="43.3757" fill="black"/>
<rect x="129.824" y="30.5" width="48.2274" height="48.3757" stroke="#00FFB2" stroke-opacity="0.4" stroke-width="5"/>
</g>
<g filter="url(#filter8_b)">
<rect x="68.7861" y="33" width="43.2274" height="43.3757" fill="black"/>
<rect x="66.2861" y="30.5" width="48.2274" height="48.3757" stroke="#00FFB2" stroke-opacity="0.4" stroke-width="5"/>
</g>
<path d="M363.067 205L305.865 61.9946H333.392L376.763 173.311L420.269 61.9946H447.796L390.594 205H363.067ZM599.126 178.547C599.126 182.218 598.41 185.664 596.978 188.887C595.635 192.109 593.755 194.929 591.338 197.346C589.011 199.674 586.236 201.554 583.013 202.986C579.88 204.329 576.478 205 572.808 205H501.775C498.195 205 494.793 204.329 491.57 202.986C488.348 201.554 485.528 199.674 483.111 197.346C480.783 194.929 478.903 192.109 477.471 188.887C476.128 185.664 475.457 182.218 475.457 178.547V88.4473C475.457 84.777 476.128 81.3306 477.471 78.1079C478.903 74.8853 480.783 72.1102 483.111 69.7827C485.528 67.3657 488.348 65.4858 491.57 64.1431C494.793 62.7108 498.195 61.9946 501.775 61.9946H572.808C576.478 61.9946 579.88 62.7108 583.013 64.1431C586.236 65.4858 589.011 67.3657 591.338 69.7827C593.755 72.1102 595.635 74.8853 596.978 78.1079C598.41 81.3306 599.126 84.777 599.126 88.4473V178.547ZM501.775 88.4473V178.547H572.808V88.4473H501.775ZM669.622 6.94092V205H643.304V6.94092H669.622ZM826.995 88.4473V205H800.542V88.4473H739.983V205H713.665V61.9946H739.983V87.2388C740.162 83.7476 740.968 80.4801 742.4 77.4365C743.833 74.3034 745.713 71.6178 748.04 69.3799C750.457 67.0524 753.232 65.262 756.365 64.0088C759.498 62.666 762.855 61.9946 766.436 61.9946H800.542C804.034 61.9946 807.346 62.666 810.479 64.0088C813.612 65.262 816.387 67.0524 818.804 69.3799C821.221 71.6178 823.146 74.3034 824.578 77.4365C826.1 80.4801 826.906 83.7476 826.995 87.2388C827.174 83.7476 827.935 80.4801 829.278 77.4365C830.71 74.3034 832.59 71.6178 834.917 69.3799C837.334 67.0524 840.11 65.262 843.243 64.0088C846.376 62.666 849.733 61.9946 853.313 61.9946H887.42C891.09 61.9946 894.537 62.7108 897.759 64.1431C900.982 65.4858 903.757 67.3657 906.084 69.7827C908.501 72.1102 910.381 74.8853 911.724 78.1079C913.156 81.3306 913.873 84.777 913.873 88.4473V205H887.42V88.4473H826.995ZM1079.03 146.992H984.368V178.547H1079.03V205H984.368C980.787 205 977.386 204.329 974.163 202.986C970.94 201.554 968.121 199.674 965.704 197.346C963.376 194.929 961.496 192.109 960.064 188.887C958.721 185.664 958.05 182.218 958.05 178.547V88.4473C958.05 84.777 958.721 81.3306 960.064 78.1079C961.496 74.8853 963.376 72.1102 965.704 69.7827C968.121 67.3657 970.94 65.4858 974.163 64.1431C977.386 62.7108 980.787 61.9946 984.368 61.9946H1052.58C1056.25 61.9946 1059.7 62.7108 1062.92 64.1431C1066.14 65.4858 1068.92 67.3657 1071.25 69.7827C1073.66 72.1102 1075.54 74.8853 1076.89 78.1079C1078.32 81.3306 1079.03 84.777 1079.03 88.4473V146.992ZM984.368 88.4473V120.54H1052.58V88.4473H984.368ZM1247.82 61.9946L1195.85 131.819L1250.24 205H1218.28L1179.88 153.303L1141.34 205H1109.38L1163.9 131.819L1111.93 61.9946H1143.76L1179.88 110.334L1215.86 61.9946H1247.82ZM1280.58 164.851H1320.73V205H1280.58V164.851ZM1417.95 33.3936V61.9946H1464.95V88.4473H1417.95V205H1391.5V88.4473H1356.58V61.9946H1391.5V33.3936C1391.5 29.7233 1392.17 26.3216 1393.51 23.1885C1394.94 19.9658 1396.87 17.146 1399.29 14.729C1401.7 12.312 1404.52 10.4321 1407.74 9.08936C1410.97 7.65706 1414.37 6.94092 1417.95 6.94092H1464.95V33.3936H1417.95ZM1528.59 61.9946V205H1502.14V61.9946H1528.59ZM1500.8 6.94092H1529.94V34.4678H1500.8V6.94092ZM1700.6 205H1674.15V88.4473H1600.43V205H1574.11V61.9946H1600.43V87.2388C1600.61 83.7476 1601.42 80.4801 1602.85 77.4365C1604.28 74.3034 1606.16 71.6178 1608.49 69.3799C1610.91 67.0524 1613.68 65.262 1616.81 64.0088C1619.95 62.666 1623.3 61.9946 1626.89 61.9946H1674.15C1677.82 61.9946 1681.27 62.7108 1684.49 64.1431C1687.71 65.4858 1690.49 67.3657 1692.82 69.7827C1695.23 72.1102 1697.11 74.8853 1698.46 78.1079C1699.89 81.3306 1700.6 84.777 1700.6 88.4473V205ZM1744.65 142.561C1744.65 138.891 1745.32 135.489 1746.66 132.356C1748.09 129.133 1749.97 126.313 1752.3 123.896C1754.72 121.479 1757.54 119.6 1760.76 118.257C1763.98 116.825 1767.38 116.108 1770.96 116.108H1839.18V88.4473H1752.84V61.9946H1839.18C1842.85 61.9946 1846.29 62.7108 1849.52 64.1431C1852.74 65.4858 1855.51 67.3657 1857.84 69.7827C1860.26 72.1102 1862.14 74.8853 1863.48 78.1079C1864.91 81.3306 1865.63 84.777 1865.63 88.4473V205H1839.18V180.83C1838.91 184.142 1838.01 187.275 1836.49 190.229C1834.97 193.184 1833 195.78 1830.58 198.018C1828.26 200.166 1825.57 201.867 1822.53 203.12C1819.48 204.373 1816.26 205 1812.86 205H1770.96C1767.38 205 1763.98 204.329 1760.76 202.986C1757.54 201.554 1754.72 199.674 1752.3 197.346C1749.97 194.929 1748.09 192.109 1746.66 188.887C1745.32 185.664 1744.65 182.218 1744.65 178.547V142.561ZM1770.96 178.547H1839.18V142.561H1770.96V178.547ZM2036.3 205H2009.84V88.4473H1936.13V205H1909.81V61.9946H1936.13V87.2388C1936.31 83.7476 1937.11 80.4801 1938.54 77.4365C1939.98 74.3034 1941.86 71.6178 1944.18 69.3799C1946.6 67.0524 1949.37 65.262 1952.51 64.0088C1955.64 62.666 1959 61.9946 1962.58 61.9946H2009.84C2013.51 61.9946 2016.96 62.7108 2020.18 64.1431C2023.41 65.4858 2026.18 67.3657 2028.51 69.7827C2030.93 72.1102 2032.81 74.8853 2034.15 78.1079C2035.58 81.3306 2036.3 84.777 2036.3 88.4473V205ZM2106.66 88.4473V178.547H2174.87V154.377H2201.32V178.547C2201.32 182.218 2200.61 185.664 2199.18 188.887C2197.83 192.109 2195.95 194.929 2193.54 197.346C2191.21 199.674 2188.43 201.554 2185.21 202.986C2181.99 204.329 2178.54 205 2174.87 205H2106.66C2103.08 205 2099.68 204.329 2096.45 202.986C2093.23 201.554 2090.41 199.674 2087.99 197.346C2085.67 194.929 2083.79 192.109 2082.35 188.887C2081.01 185.664 2080.34 182.218 2080.34 178.547V88.4473C2080.34 84.777 2081.01 81.3306 2082.35 78.1079C2083.79 74.8853 2085.67 72.1102 2087.99 69.7827C2090.41 67.3657 2093.23 65.4858 2096.45 64.1431C2099.68 62.7108 2103.08 61.9946 2106.66 61.9946H2174.87C2178.54 61.9946 2181.99 62.7108 2185.21 64.1431C2188.43 65.4858 2191.21 67.3657 2193.54 69.7827C2195.95 72.1102 2197.83 74.8853 2199.18 78.1079C2200.61 81.3306 2201.32 84.777 2201.32 88.4473V112.617H2174.87V88.4473H2106.66ZM2366.48 146.992H2271.82V178.547H2366.48V205H2271.82C2268.24 205 2264.84 204.329 2261.61 202.986C2258.39 201.554 2255.57 199.674 2253.15 197.346C2250.83 194.929 2248.95 192.109 2247.52 188.887C2246.17 185.664 2245.5 182.218 2245.5 178.547V88.4473C2245.5 84.777 2246.17 81.3306 2247.52 78.1079C2248.95 74.8853 2250.83 72.1102 2253.15 69.7827C2255.57 67.3657 2258.39 65.4858 2261.61 64.1431C2264.84 62.7108 2268.24 61.9946 2271.82 61.9946H2340.03C2343.7 61.9946 2347.15 62.7108 2350.37 64.1431C2353.59 65.4858 2356.37 67.3657 2358.7 69.7827C2361.11 72.1102 2362.99 74.8853 2364.34 78.1079C2365.77 81.3306 2366.48 84.777 2366.48 88.4473V146.992ZM2271.82 88.4473V120.54H2340.03V88.4473H2271.82Z" fill="black"/>
<path d="M363.067 205L358.425 206.857L359.682 210H363.067V205ZM305.865 61.9946V56.9946H298.48L301.222 63.8516L305.865 61.9946ZM333.392 61.9946L338.05 60.1794L336.81 56.9946H333.392V61.9946ZM376.763 173.311L372.104 175.126L376.756 187.065L381.42 175.131L376.763 173.311ZM420.269 61.9946V56.9946H416.855L415.612 60.1745L420.269 61.9946ZM447.796 61.9946L452.438 63.8516L455.181 56.9946H447.796V61.9946ZM390.594 205V210H393.979L395.236 206.857L390.594 205ZM367.709 203.143L310.507 60.1377L301.222 63.8516L358.425 206.857L367.709 203.143ZM305.865 66.9946H333.392V56.9946H305.865V66.9946ZM328.733 63.8098L372.104 175.126L381.422 171.495L338.05 60.1794L328.733 63.8098ZM381.42 175.131L424.926 63.8147L415.612 60.1745L372.106 171.49L381.42 175.131ZM420.269 66.9946H447.796V56.9946H420.269V66.9946ZM443.154 60.1377L385.951 203.143L395.236 206.857L452.438 63.8516L443.154 60.1377ZM390.594 200H363.067V210H390.594V200ZM596.978 188.887L592.409 186.856L592.385 186.91L592.363 186.964L596.978 188.887ZM591.338 197.346L594.874 200.882L591.338 197.346ZM583.013 202.986L584.983 207.582L585.013 207.568L585.044 207.555L583.013 202.986ZM491.57 202.986L489.54 207.555L489.593 207.579L489.647 207.601L491.57 202.986ZM483.111 197.346L479.509 200.814L479.575 200.882L479.643 200.948L483.111 197.346ZM477.471 188.887L472.856 190.81L472.878 190.864L472.902 190.917L477.471 188.887ZM477.471 78.1079L472.902 76.0772L472.878 76.1308L472.856 76.1848L477.471 78.1079ZM483.111 69.7827L479.575 66.2472L483.111 69.7827ZM491.57 64.1431L493.493 68.7585L493.547 68.7359L493.601 68.7121L491.57 64.1431ZM583.013 64.1431L580.934 68.6904L581.012 68.7258L581.09 68.7585L583.013 64.1431ZM591.338 69.7827L587.737 73.2509L587.802 73.3189L587.87 73.3843L591.338 69.7827ZM596.978 78.1079L592.363 80.031L592.385 80.0851L592.409 80.1386L596.978 78.1079ZM501.775 88.4473V83.4473H496.775V88.4473H501.775ZM501.775 178.547H496.775V183.547H501.775V178.547ZM572.808 178.547V183.547H577.808V178.547H572.808ZM572.808 88.4473H577.808V83.4473H572.808V88.4473ZM594.126 178.547C594.126 181.547 593.546 184.299 592.409 186.856L601.547 190.917C603.275 187.029 604.126 182.888 604.126 178.547H594.126ZM592.363 186.964C591.266 189.597 589.748 191.865 587.803 193.811L594.874 200.882C597.763 197.993 600.005 194.622 601.593 190.81L592.363 186.964ZM587.803 193.811C585.939 195.674 583.685 197.216 580.982 198.417L585.044 207.555C588.787 205.891 592.082 203.673 594.874 200.882L587.803 193.811ZM581.044 198.39C578.579 199.446 575.854 200 572.808 200V210C577.103 210 581.181 209.211 584.983 207.582L581.044 198.39ZM572.808 200H501.775V210H572.808V200ZM501.775 200C498.837 200 496.091 199.453 493.493 198.37L489.647 207.601C493.495 209.204 497.552 210 501.775 210V200ZM493.601 198.417C490.883 197.209 488.556 195.648 486.579 193.745L479.643 200.948C482.5 203.699 485.813 205.898 489.54 207.555L493.601 198.417ZM486.712 193.878C484.809 191.901 483.248 189.574 482.04 186.856L472.902 190.917C474.559 194.644 476.758 197.957 479.509 200.814L486.712 193.878ZM482.087 186.964C481.011 184.381 480.457 181.592 480.457 178.547H470.457C470.457 182.843 471.246 186.947 472.856 190.81L482.087 186.964ZM480.457 178.547V88.4473H470.457V178.547H480.457ZM480.457 88.4473C480.457 85.4027 481.011 82.6133 482.087 80.031L472.856 76.1848C471.246 80.0478 470.457 84.1513 470.457 88.4473H480.457ZM482.04 80.1386C483.241 77.4364 484.783 75.1816 486.646 73.3182L479.575 66.2472C476.784 69.0388 474.566 72.3341 472.902 76.0772L482.04 80.1386ZM486.646 73.3182C488.592 71.3731 490.86 69.8555 493.493 68.7585L489.647 59.5277C485.835 61.1161 482.464 63.3584 479.575 66.2472L486.646 73.3182ZM493.601 68.7121C496.174 67.5684 498.883 66.9946 501.775 66.9946V56.9946C497.506 56.9946 493.412 57.8531 489.54 59.574L493.601 68.7121ZM501.775 66.9946H572.808V56.9946H501.775V66.9946ZM572.808 66.9946C575.809 66.9946 578.496 67.5756 580.934 68.6904L585.092 59.5957C581.264 57.8459 577.148 56.9946 572.808 56.9946V66.9946ZM581.09 68.7585C583.707 69.8487 585.904 71.3472 587.737 73.2509L594.94 66.3145C592.118 63.3842 588.765 61.123 584.936 59.5277L581.09 68.7585ZM587.87 73.3843C589.774 75.2175 591.272 77.4144 592.363 80.031L601.593 76.1848C599.998 72.3561 597.737 69.0029 594.807 66.1811L587.87 73.3843ZM592.409 80.1386C593.546 82.6958 594.126 85.4475 594.126 88.4473H604.126C604.126 84.1066 603.275 79.9653 601.547 76.0772L592.409 80.1386ZM594.126 88.4473V178.547H604.126V88.4473H594.126ZM496.775 88.4473V178.547H506.775V88.4473H496.775ZM501.775 183.547H572.808V173.547H501.775V183.547ZM577.808 178.547V88.4473H567.808V178.547H577.808ZM572.808 83.4473H501.775V93.4473H572.808V83.4473ZM669.622 6.94092H674.622V1.94092H669.622V6.94092ZM669.622 205V210H674.622V205H669.622ZM643.304 205H638.304V210H643.304V205ZM643.304 6.94092V1.94092H638.304V6.94092H643.304ZM664.622 6.94092V205H674.622V6.94092H664.622ZM669.622 200H643.304V210H669.622V200ZM648.304 205V6.94092H638.304V205H648.304ZM643.304 11.9409H669.622V1.94092H643.304V11.9409ZM826.995 88.4473V83.4473H821.995V88.4473H826.995ZM826.995 205V210H831.995V205H826.995ZM800.542 205H795.542V210H800.542V205ZM800.542 88.4473H805.542V83.4473H800.542V88.4473ZM739.983 88.4473V83.4473H734.983V88.4473H739.983ZM739.983 205V210H744.983V205H739.983ZM713.665 205H708.665V210H713.665V205ZM713.665 61.9946V56.9946H708.665V61.9946H713.665ZM739.983 61.9946H744.983V56.9946H739.983V61.9946ZM739.983 87.2388H734.983L744.977 87.4948L739.983 87.2388ZM742.4 77.4365L746.924 79.5655L746.936 79.5405L746.948 79.5153L742.4 77.4365ZM748.04 69.3799L751.506 72.984L751.508 72.9815L748.04 69.3799ZM756.365 64.0088L758.222 68.6512L758.279 68.6285L758.335 68.6045L756.365 64.0088ZM810.479 64.0088L808.509 68.6045L808.565 68.6285L808.622 68.6512L810.479 64.0088ZM818.804 69.3799L815.336 72.9815L815.371 73.0154L815.407 73.0487L818.804 69.3799ZM824.578 77.4365L820.031 79.5153L820.067 79.5946L820.106 79.6726L824.578 77.4365ZM826.995 87.2388L821.997 87.3669L831.989 87.4948L826.995 87.2388ZM829.278 77.4365L824.73 75.3577L824.717 75.3879L824.703 75.4183L829.278 77.4365ZM834.917 69.3799L838.383 72.984L838.386 72.9815L834.917 69.3799ZM843.243 64.0088L845.1 68.6512L845.156 68.6285L845.212 68.6045L843.243 64.0088ZM897.759 64.1431L895.729 68.7121L895.782 68.7359L895.836 68.7585L897.759 64.1431ZM906.084 69.7827L902.483 73.2509L902.548 73.3189L902.616 73.3843L906.084 69.7827ZM911.724 78.1079L907.109 80.031L907.131 80.0851L907.155 80.1386L911.724 78.1079ZM913.873 205V210H918.873V205H913.873ZM887.42 205H882.42V210H887.42V205ZM887.42 88.4473H892.42V83.4473H887.42V88.4473ZM821.995 88.4473V205H831.995V88.4473H821.995ZM826.995 200H800.542V210H826.995V200ZM805.542 205V88.4473H795.542V205H805.542ZM800.542 83.4473H739.983V93.4473H800.542V83.4473ZM734.983 88.4473V205H744.983V88.4473H734.983ZM739.983 200H713.665V210H739.983V200ZM718.665 205V61.9946H708.665V205H718.665ZM713.665 66.9946H739.983V56.9946H713.665V66.9946ZM734.983 61.9946V87.2388H744.983V61.9946H734.983ZM744.977 87.4948C745.124 84.6266 745.78 81.9982 746.924 79.5655L737.876 75.3075C736.157 78.9621 735.201 82.8686 734.99 86.9827L744.977 87.4948ZM746.948 79.5153C748.136 76.9155 749.661 74.7576 751.506 72.984L744.574 65.7757C741.764 68.4781 739.529 71.6913 737.853 75.3577L746.948 79.5153ZM751.508 72.9815C753.458 71.1043 755.685 69.6661 758.222 68.6512L754.508 59.3664C750.779 60.858 747.456 63.0005 744.572 65.7783L751.508 72.9815ZM758.335 68.6045C760.814 67.5418 763.498 66.9946 766.436 66.9946V56.9946C762.213 56.9946 758.182 57.7902 754.396 59.4131L758.335 68.6045ZM766.436 66.9946H800.542V56.9946H766.436V66.9946ZM800.542 66.9946C803.373 66.9946 806.014 67.535 808.509 68.6045L812.449 59.4131C808.678 57.797 804.694 56.9946 800.542 56.9946V66.9946ZM808.622 68.6512C811.159 69.6661 813.387 71.1043 815.336 72.9815L822.272 65.7783C819.388 63.0005 816.065 60.858 812.336 59.3664L808.622 68.6512ZM815.407 73.0487C817.317 74.8173 818.86 76.9549 820.031 79.5153L829.125 75.3577C827.431 71.6518 825.125 68.4183 822.201 65.7111L815.407 73.0487ZM820.106 79.6726C821.291 82.0431 821.926 84.5886 821.997 87.3669L831.993 87.1106C831.886 82.9065 830.909 78.9172 829.05 75.2005L820.106 79.6726ZM831.989 87.4948C832.138 84.5803 832.768 81.9134 833.852 79.4547L824.703 75.4183C823.102 79.0469 822.21 82.9148 822.002 86.9827L831.989 87.4948ZM833.825 79.5153C835.014 76.9155 836.539 74.7576 838.383 72.984L831.452 65.7757C828.641 68.4781 826.407 71.6913 824.73 75.3577L833.825 79.5153ZM838.386 72.9815C840.335 71.1043 842.562 69.6661 845.1 68.6512L841.386 59.3664C837.657 60.858 834.334 63.0005 831.449 65.7783L838.386 72.9815ZM845.212 68.6045C847.692 67.5418 850.375 66.9946 853.313 66.9946V56.9946C849.09 56.9946 845.06 57.7902 841.273 59.4131L845.212 68.6045ZM853.313 66.9946H887.42V56.9946H853.313V66.9946ZM887.42 66.9946C890.42 66.9946 893.171 67.5756 895.729 68.7121L899.79 59.574C895.902 57.846 891.761 56.9946 887.42 56.9946V66.9946ZM895.836 68.7585C898.453 69.8487 900.65 71.3472 902.483 73.2509L909.686 66.3145C906.864 63.3842 903.511 61.123 899.682 59.5277L895.836 68.7585ZM902.616 73.3843C904.52 75.2175 906.018 77.4144 907.109 80.031L916.34 76.1848C914.744 72.3561 912.483 69.0029 909.553 66.1811L902.616 73.3843ZM907.155 80.1386C908.292 82.6958 908.873 85.4475 908.873 88.4473H918.873C918.873 84.1066 918.021 79.9653 916.293 76.0772L907.155 80.1386ZM908.873 88.4473V205H918.873V88.4473H908.873ZM913.873 200H887.42V210H913.873V200ZM892.42 205V88.4473H882.42V205H892.42ZM887.42 83.4473H826.995V93.4473H887.42V83.4473ZM1079.03 146.992V151.992H1084.03V146.992H1079.03ZM984.368 146.992V141.992H979.368V146.992H984.368ZM984.368 178.547H979.368V183.547H984.368V178.547ZM1079.03 178.547H1084.03V173.547H1079.03V178.547ZM1079.03 205V210H1084.03V205H1079.03ZM974.163 202.986L972.132 207.555L972.186 207.579L972.24 207.601L974.163 202.986ZM965.704 197.346L962.102 200.814L962.167 200.882L962.235 200.948L965.704 197.346ZM960.064 188.887L955.449 190.81L955.471 190.864L955.495 190.917L960.064 188.887ZM960.064 78.1079L955.495 76.0772L955.471 76.1308L955.449 76.1848L960.064 78.1079ZM965.704 69.7827L962.168 66.2472L965.704 69.7827ZM974.163 64.1431L976.086 68.7585L976.14 68.7359L976.194 68.7121L974.163 64.1431ZM1062.92 64.1431L1060.89 68.7121L1060.94 68.7359L1061 68.7585L1062.92 64.1431ZM1071.25 69.7827L1067.64 73.2509L1067.71 73.3189L1067.78 73.3843L1071.25 69.7827ZM1076.89 78.1079L1072.27 80.031L1072.29 80.0851L1072.32 80.1386L1076.89 78.1079ZM984.368 88.4473V83.4473H979.368V88.4473H984.368ZM984.368 120.54H979.368V125.54H984.368V120.54ZM1052.58 120.54V125.54H1057.58V120.54H1052.58ZM1052.58 88.4473H1057.58V83.4473H1052.58V88.4473ZM1079.03 141.992H984.368V151.992H1079.03V141.992ZM979.368 146.992V178.547H989.368V146.992H979.368ZM984.368 183.547H1079.03V173.547H984.368V183.547ZM1074.03 178.547V205H1084.03V178.547H1074.03ZM1079.03 200H984.368V210H1079.03V200ZM984.368 200C981.43 200 978.684 199.453 976.086 198.37L972.24 207.601C976.088 209.204 980.145 210 984.368 210V200ZM976.194 198.417C973.476 197.209 971.149 195.648 969.172 193.745L962.235 200.948C965.093 203.699 968.405 205.898 972.132 207.555L976.194 198.417ZM969.305 193.878C967.402 191.901 965.841 189.574 964.633 186.856L955.495 190.917C957.151 194.644 959.351 197.957 962.102 200.814L969.305 193.878ZM964.679 186.964C963.603 184.381 963.05 181.592 963.05 178.547H953.05C953.05 182.843 953.839 186.947 955.449 190.81L964.679 186.964ZM963.05 178.547V88.4473H953.05V178.547H963.05ZM963.05 88.4473C963.05 85.4027 963.603 82.6133 964.679 80.031L955.449 76.1848C953.839 80.0478 953.05 84.1513 953.05 88.4473H963.05ZM964.633 80.1386C965.834 77.4364 967.376 75.1816 969.239 73.3182L962.168 66.2472C959.377 69.0388 957.159 72.3341 955.495 76.0772L964.633 80.1386ZM969.239 73.3182C971.184 71.3731 973.453 69.8555 976.086 68.7585L972.24 59.5277C968.428 61.1161 965.057 63.3584 962.168 66.2472L969.239 73.3182ZM976.194 68.7121C978.767 67.5684 981.476 66.9946 984.368 66.9946V56.9946C980.099 56.9946 976.004 57.8531 972.132 59.574L976.194 68.7121ZM984.368 66.9946H1052.58V56.9946H984.368V66.9946ZM1052.58 66.9946C1055.58 66.9946 1058.33 67.5756 1060.89 68.7121L1064.95 59.574C1061.06 57.846 1056.92 56.9946 1052.58 56.9946V66.9946ZM1061 68.7585C1063.61 69.8487 1065.81 71.3472 1067.64 73.2509L1074.85 66.3145C1072.03 63.3842 1068.67 61.123 1064.84 59.5277L1061 68.7585ZM1067.78 73.3843C1069.68 75.2175 1071.18 77.4144 1072.27 80.031L1081.5 76.1848C1079.91 72.3561 1077.64 69.0029 1074.71 66.1811L1067.78 73.3843ZM1072.32 80.1386C1073.45 82.6958 1074.03 85.4475 1074.03 88.4473H1084.03C1084.03 84.1066 1083.18 79.9653 1081.45 76.0772L1072.32 80.1386ZM1074.03 88.4473V146.992H1084.03V88.4473H1074.03ZM979.368 88.4473V120.54H989.368V88.4473H979.368ZM984.368 125.54H1052.58V115.54H984.368V125.54ZM1057.58 120.54V88.4473H1047.58V120.54H1057.58ZM1052.58 83.4473H984.368V93.4473H1052.58V83.4473ZM1247.82 61.9946L1251.83 64.9798L1257.77 56.9946H1247.82V61.9946ZM1195.85 131.819L1191.84 128.834L1189.62 131.817L1191.84 134.801L1195.85 131.819ZM1250.24 205V210H1260.18L1254.25 202.018L1250.24 205ZM1218.28 205L1214.27 207.982L1215.76 210H1218.28V205ZM1179.88 153.303L1183.89 150.322L1179.88 144.928L1175.87 150.315L1179.88 153.303ZM1141.34 205V210H1143.85L1145.35 207.988L1141.34 205ZM1109.38 205L1105.37 202.013L1099.42 210H1109.38V205ZM1163.9 131.819L1167.91 134.806L1170.13 131.82L1167.91 128.834L1163.9 131.819ZM1111.93 61.9946V56.9946H1101.98L1107.92 64.9798L1111.93 61.9946ZM1143.76 61.9946L1147.76 59.0018L1146.26 56.9946H1143.76V61.9946ZM1179.88 110.334L1175.87 113.327L1179.88 118.698L1183.89 113.32L1179.88 110.334ZM1215.86 61.9946V56.9946H1213.35L1211.85 59.0089L1215.86 61.9946ZM1243.81 59.0095L1191.84 128.834L1199.87 134.804L1251.83 64.9798L1243.81 59.0095ZM1191.84 134.801L1246.22 207.982L1254.25 202.018L1199.87 128.837L1191.84 134.801ZM1250.24 200H1218.28V210H1250.24V200ZM1222.29 202.018L1183.89 150.322L1175.86 156.285L1214.27 207.982L1222.29 202.018ZM1175.87 150.315L1137.33 202.012L1145.35 207.988L1183.88 156.292L1175.87 150.315ZM1141.34 200H1109.38V210H1141.34V200ZM1113.39 207.987L1167.91 134.806L1159.89 128.832L1105.37 202.013L1113.39 207.987ZM1167.91 128.834L1115.94 59.0095L1107.92 64.9798L1159.89 134.804L1167.91 128.834ZM1111.93 66.9946H1143.76V56.9946H1111.93V66.9946ZM1139.75 64.9875L1175.87 113.327L1183.88 107.342L1147.76 59.0018L1139.75 64.9875ZM1183.89 113.32L1219.87 64.9803L1211.85 59.0089L1175.87 107.349L1183.89 113.32ZM1215.86 66.9946H1247.82V56.9946H1215.86V66.9946ZM1280.58 164.851V159.851H1275.58V164.851H1280.58ZM1320.73 164.851H1325.73V159.851H1320.73V164.851ZM1320.73 205V210H1325.73V205H1320.73ZM1280.58 205H1275.58V210H1280.58V205ZM1280.58 169.851H1320.73V159.851H1280.58V169.851ZM1315.73 164.851V205H1325.73V164.851H1315.73ZM1320.73 200H1280.58V210H1320.73V200ZM1285.58 205V164.851H1275.58V205H1285.58ZM1417.95 33.3936V28.3936H1412.95V33.3936H1417.95ZM1417.95 61.9946H1412.95V66.9946H1417.95V61.9946ZM1464.95 61.9946H1469.95V56.9946H1464.95V61.9946ZM1464.95 88.4473V93.4473H1469.95V88.4473H1464.95ZM1417.95 88.4473V83.4473H1412.95V88.4473H1417.95ZM1417.95 205V210H1422.95V205H1417.95ZM1391.5 205H1386.5V210H1391.5V205ZM1391.5 88.4473H1396.5V83.4473H1391.5V88.4473ZM1356.58 88.4473H1351.58V93.4473H1356.58V88.4473ZM1356.58 61.9946V56.9946H1351.58V61.9946H1356.58ZM1391.5 61.9946V66.9946H1396.5V61.9946H1391.5ZM1393.51 23.1885L1388.94 21.1578L1388.93 21.1882L1388.92 21.2189L1393.51 23.1885ZM1407.74 9.08936L1409.67 13.7047L1409.72 13.6822L1409.78 13.6584L1407.74 9.08936ZM1464.95 6.94092H1469.95V1.94092H1464.95V6.94092ZM1464.95 33.3936V38.3936H1469.95V33.3936H1464.95ZM1412.95 33.3936V61.9946H1422.95V33.3936H1412.95ZM1417.95 66.9946H1464.95V56.9946H1417.95V66.9946ZM1459.95 61.9946V88.4473H1469.95V61.9946H1459.95ZM1464.95 83.4473H1417.95V93.4473H1464.95V83.4473ZM1412.95 88.4473V205H1422.95V88.4473H1412.95ZM1417.95 200H1391.5V210H1417.95V200ZM1396.5 205V88.4473H1386.5V205H1396.5ZM1391.5 83.4473H1356.58V93.4473H1391.5V83.4473ZM1361.58 88.4473V61.9946H1351.58V88.4473H1361.58ZM1356.58 66.9946H1391.5V56.9946H1356.58V66.9946ZM1396.5 61.9946V33.3936H1386.5V61.9946H1396.5ZM1396.5 33.3936C1396.5 30.3479 1397.05 27.6223 1398.11 25.1581L1388.92 21.2189C1387.29 25.021 1386.5 29.0987 1386.5 33.3936H1396.5ZM1398.08 25.2192C1399.27 22.5392 1400.85 20.2338 1402.82 18.2645L1395.75 11.1935C1392.88 14.0582 1390.62 17.3924 1388.94 21.1578L1398.08 25.2192ZM1402.82 18.2645C1404.77 16.3193 1407.03 14.8018 1409.67 13.7047L1405.82 4.47397C1402.01 6.06244 1398.64 8.30467 1395.75 11.1935L1402.82 18.2645ZM1409.78 13.6584C1412.35 12.5147 1415.06 11.9409 1417.95 11.9409V1.94092C1413.68 1.94092 1409.59 2.79942 1405.71 4.5203L1409.78 13.6584ZM1417.95 11.9409H1464.95V1.94092H1417.95V11.9409ZM1459.95 6.94092V33.3936H1469.95V6.94092H1459.95ZM1464.95 28.3936H1417.95V38.3936H1464.95V28.3936ZM1528.59 61.9946H1533.59V56.9946H1528.59V61.9946ZM1528.59 205V210H1533.59V205H1528.59ZM1502.14 205H1497.14V210H1502.14V205ZM1502.14 61.9946V56.9946H1497.14V61.9946H1502.14ZM1500.8 6.94092V1.94092H1495.8V6.94092H1500.8ZM1529.94 6.94092H1534.94V1.94092H1529.94V6.94092ZM1529.94 34.4678V39.4678H1534.94V34.4678H1529.94ZM1500.8 34.4678H1495.8V39.4678H1500.8V34.4678ZM1523.59 61.9946V205H1533.59V61.9946H1523.59ZM1528.59 200H1502.14V210H1528.59V200ZM1507.14 205V61.9946H1497.14V205H1507.14ZM1502.14 66.9946H1528.59V56.9946H1502.14V66.9946ZM1500.8 11.9409H1529.94V1.94092H1500.8V11.9409ZM1524.94 6.94092V34.4678H1534.94V6.94092H1524.94ZM1529.94 29.4678H1500.8V39.4678H1529.94V29.4678ZM1505.8 34.4678V6.94092H1495.8V34.4678H1505.8ZM1700.6 205V210H1705.6V205H1700.6ZM1674.15 205H1669.15V210H1674.15V205ZM1674.15 88.4473H1679.15V83.4473H1674.15V88.4473ZM1600.43 88.4473V83.4473H1595.43V88.4473H1600.43ZM1600.43 205V210H1605.43V205H1600.43ZM1574.11 205H1569.11V210H1574.11V205ZM1574.11 61.9946V56.9946H1569.11V61.9946H1574.11ZM1600.43 61.9946H1605.43V56.9946H1600.43V61.9946ZM1600.43 87.2388H1595.43L1605.43 87.4948L1600.43 87.2388ZM1602.85 77.4365L1607.37 79.5655L1607.39 79.5405L1607.4 79.5153L1602.85 77.4365ZM1608.49 69.3799L1611.95 72.984L1611.96 72.9815L1608.49 69.3799ZM1616.81 64.0088L1618.67 68.6512L1618.73 68.6285L1618.78 68.6045L1616.81 64.0088ZM1684.49 64.1431L1682.46 68.7121L1682.51 68.7359L1682.57 68.7585L1684.49 64.1431ZM1692.82 69.7827L1689.21 73.2509L1689.28 73.3189L1689.35 73.3843L1692.82 69.7827ZM1698.46 78.1079L1693.84 80.031L1693.86 80.0851L1693.89 80.1386L1698.46 78.1079ZM1700.6 200H1674.15V210H1700.6V200ZM1679.15 205V88.4473H1669.15V205H1679.15ZM1674.15 83.4473H1600.43V93.4473H1674.15V83.4473ZM1595.43 88.4473V205H1605.43V88.4473H1595.43ZM1600.43 200H1574.11V210H1600.43V200ZM1579.11 205V61.9946H1569.11V205H1579.11ZM1574.11 66.9946H1600.43V56.9946H1574.11V66.9946ZM1595.43 61.9946V87.2388H1605.43V61.9946H1595.43ZM1605.43 87.4948C1605.57 84.6266 1606.23 81.9982 1607.37 79.5655L1598.33 75.3075C1596.61 78.9621 1595.65 82.8686 1595.44 86.9827L1605.43 87.4948ZM1607.4 79.5153C1608.59 76.9155 1610.11 74.7576 1611.95 72.984L1605.02 65.7757C1602.21 68.4781 1599.98 71.6913 1598.3 75.3577L1607.4 79.5153ZM1611.96 72.9815C1613.91 71.1043 1616.13 69.6661 1618.67 68.6512L1614.96 59.3664C1611.23 60.858 1607.91 63.0005 1605.02 65.7783L1611.96 72.9815ZM1618.78 68.6045C1621.26 67.5418 1623.95 66.9946 1626.89 66.9946V56.9946C1622.66 56.9946 1618.63 57.7902 1614.84 59.4131L1618.78 68.6045ZM1626.89 66.9946H1674.15V56.9946H1626.89V66.9946ZM1674.15 66.9946C1677.15 66.9946 1679.9 67.5756 1682.46 68.7121L1686.52 59.574C1682.63 57.846 1678.49 56.9946 1674.15 56.9946V66.9946ZM1682.57 68.7585C1685.18 69.8487 1687.38 71.3472 1689.21 73.2509L1696.42 66.3145C1693.6 63.3842 1690.24 61.123 1686.41 59.5277L1682.57 68.7585ZM1689.35 73.3843C1691.25 75.2175 1692.75 77.4144 1693.84 80.031L1703.07 76.1848C1701.48 72.3561 1699.21 69.0029 1696.28 66.1811L1689.35 73.3843ZM1693.89 80.1386C1695.02 82.6958 1695.6 85.4475 1695.6 88.4473H1705.6C1705.6 84.1066 1704.75 79.9653 1703.02 76.0772L1693.89 80.1386ZM1695.6 88.4473V205H1705.6V88.4473H1695.6ZM1746.66 132.356L1742.09 130.325L1742.08 130.356L1742.06 130.386L1746.66 132.356ZM1752.3 123.896L1748.76 120.361L1748.73 120.394L1748.7 120.428L1752.3 123.896ZM1760.76 118.257L1762.68 122.872L1762.74 122.85L1762.79 122.826L1760.76 118.257ZM1839.18 116.108V121.108H1844.18V116.108H1839.18ZM1839.18 88.4473H1844.18V83.4473H1839.18V88.4473ZM1752.84 88.4473H1747.84V93.4473H1752.84V88.4473ZM1752.84 61.9946V56.9946H1747.84V61.9946H1752.84ZM1849.52 64.1431L1847.49 68.7121L1847.54 68.7359L1847.59 68.7585L1849.52 64.1431ZM1857.84 69.7827L1854.24 73.2509L1854.31 73.3189L1854.37 73.3843L1857.84 69.7827ZM1863.48 78.1079L1858.87 80.031L1858.89 80.0851L1858.91 80.1386L1863.48 78.1079ZM1865.63 205V210H1870.63V205H1865.63ZM1839.18 205H1834.18V210H1839.18V205ZM1839.18 180.83H1844.18L1834.19 180.426L1839.18 180.83ZM1830.58 198.018L1833.98 201.692L1833.98 201.686L1830.58 198.018ZM1760.76 202.986L1758.73 207.555L1758.78 207.579L1758.84 207.601L1760.76 202.986ZM1752.3 197.346L1748.7 200.814L1748.76 200.882L1748.83 200.948L1752.3 197.346ZM1746.66 188.887L1742.05 190.81L1742.07 190.864L1742.09 190.917L1746.66 188.887ZM1770.96 178.547H1765.96V183.547H1770.96V178.547ZM1839.18 178.547V183.547H1844.18V178.547H1839.18ZM1839.18 142.561H1844.18V137.561H1839.18V142.561ZM1770.96 142.561V137.561H1765.96V142.561H1770.96ZM1749.65 142.561C1749.65 139.515 1750.2 136.79 1751.26 134.326L1742.06 130.386C1740.44 134.188 1739.65 138.266 1739.65 142.561H1749.65ZM1751.23 134.387C1752.44 131.668 1754 129.341 1755.9 127.365L1748.7 120.428C1745.95 123.286 1743.75 126.598 1742.09 130.325L1751.23 134.387ZM1755.84 127.432C1757.78 125.487 1760.05 123.969 1762.68 122.872L1758.84 113.641C1755.02 115.23 1751.65 117.472 1748.76 120.361L1755.84 127.432ZM1762.79 122.826C1765.36 121.682 1768.07 121.108 1770.96 121.108V111.108C1766.7 111.108 1762.6 111.967 1758.73 113.688L1762.79 122.826ZM1770.96 121.108H1839.18V111.108H1770.96V121.108ZM1844.18 116.108V88.4473H1834.18V116.108H1844.18ZM1839.18 83.4473H1752.84V93.4473H1839.18V83.4473ZM1757.84 88.4473V61.9946H1747.84V88.4473H1757.84ZM1752.84 66.9946H1839.18V56.9946H1752.84V66.9946ZM1839.18 66.9946C1842.18 66.9946 1844.93 67.5756 1847.49 68.7121L1851.55 59.574C1847.66 57.846 1843.52 56.9946 1839.18 56.9946V66.9946ZM1847.59 68.7585C1850.21 69.8487 1852.41 71.3472 1854.24 73.2509L1861.44 66.3145C1858.62 63.3842 1855.27 61.123 1851.44 59.5277L1847.59 68.7585ZM1854.37 73.3843C1856.28 75.2175 1857.78 77.4144 1858.87 80.031L1868.1 76.1848C1866.5 72.3561 1864.24 69.0029 1861.31 66.1811L1854.37 73.3843ZM1858.91 80.1386C1860.05 82.6958 1860.63 85.4475 1860.63 88.4473H1870.63C1870.63 84.1066 1869.78 79.9653 1868.05 76.0772L1858.91 80.1386ZM1860.63 88.4473V205H1870.63V88.4473H1860.63ZM1865.63 200H1839.18V210H1865.63V200ZM1844.18 205V180.83H1834.18V205H1844.18ZM1834.19 180.426C1833.98 183.08 1833.27 185.572 1832.05 187.94L1840.94 192.519C1842.76 188.978 1843.84 185.204 1844.16 181.234L1834.19 180.426ZM1832.05 187.94C1830.79 190.381 1829.17 192.51 1827.19 194.349L1833.98 201.686C1836.83 199.05 1839.15 195.986 1840.94 192.519L1832.05 187.94ZM1827.19 194.344C1825.32 196.074 1823.14 197.46 1820.62 198.497L1824.43 207.744C1828 206.273 1831.2 204.258 1833.98 201.692L1827.19 194.344ZM1820.62 198.497C1818.2 199.493 1815.63 200 1812.86 200V210C1816.89 210 1820.76 209.254 1824.43 207.744L1820.62 198.497ZM1812.86 200H1770.96V210H1812.86V200ZM1770.96 200C1768.03 200 1765.28 199.453 1762.68 198.37L1758.84 207.601C1762.68 209.204 1766.74 210 1770.96 210V200ZM1762.79 198.417C1760.07 197.209 1757.75 195.648 1755.77 193.745L1748.83 200.948C1751.69 203.699 1755 205.898 1758.73 207.555L1762.79 198.417ZM1755.9 193.878C1754 191.901 1752.44 189.574 1751.23 186.856L1742.09 190.917C1743.75 194.644 1745.95 197.957 1748.7 200.814L1755.9 193.878ZM1751.28 186.964C1750.2 184.381 1749.65 181.592 1749.65 178.547H1739.65C1739.65 182.843 1740.44 186.947 1742.05 190.81L1751.28 186.964ZM1749.65 178.547V142.561H1739.65V178.547H1749.65ZM1770.96 183.547H1839.18V173.547H1770.96V183.547ZM1844.18 178.547V142.561H1834.18V178.547H1844.18ZM1839.18 137.561H1770.96V147.561H1839.18V137.561ZM1765.96 142.561V178.547H1775.96V142.561H1765.96ZM2036.3 205V210H2041.3V205H2036.3ZM2009.84 205H2004.84V210H2009.84V205ZM2009.84 88.4473H2014.84V83.4473H2009.84V88.4473ZM1936.13 88.4473V83.4473H1931.13V88.4473H1936.13ZM1936.13 205V210H1941.13V205H1936.13ZM1909.81 205H1904.81V210H1909.81V205ZM1909.81 61.9946V56.9946H1904.81V61.9946H1909.81ZM1936.13 61.9946H1941.13V56.9946H1936.13V61.9946ZM1936.13 87.2388H1931.13L1941.12 87.4948L1936.13 87.2388ZM1938.54 77.4365L1943.07 79.5655L1943.08 79.5405L1943.09 79.5153L1938.54 77.4365ZM1944.18 69.3799L1947.65 72.984L1947.65 72.9815L1944.18 69.3799ZM1952.51 64.0088L1954.36 68.6512L1954.42 68.6285L1954.48 68.6045L1952.51 64.0088ZM2020.18 64.1431L2018.15 68.7121L2018.21 68.7359L2018.26 68.7585L2020.18 64.1431ZM2028.51 69.7827L2024.91 73.2509L2024.97 73.3189L2025.04 73.3843L2028.51 69.7827ZM2034.15 78.1079L2029.53 80.031L2029.56 80.0851L2029.58 80.1386L2034.15 78.1079ZM2036.3 200H2009.84V210H2036.3V200ZM2014.84 205V88.4473H2004.84V205H2014.84ZM2009.84 83.4473H1936.13V93.4473H2009.84V83.4473ZM1931.13 88.4473V205H1941.13V88.4473H1931.13ZM1936.13 200H1909.81V210H1936.13V200ZM1914.81 205V61.9946H1904.81V205H1914.81ZM1909.81 66.9946H1936.13V56.9946H1909.81V66.9946ZM1931.13 61.9946V87.2388H1941.13V61.9946H1931.13ZM1941.12 87.4948C1941.27 84.6266 1941.92 81.9982 1943.07 79.5655L1934.02 75.3075C1932.3 78.9621 1931.34 82.8686 1931.13 86.9827L1941.12 87.4948ZM1943.09 79.5153C1944.28 76.9155 1945.8 74.7576 1947.65 72.984L1940.72 65.7757C1937.91 68.4781 1935.67 71.6913 1934 75.3577L1943.09 79.5153ZM1947.65 72.9815C1949.6 71.1043 1951.83 69.6661 1954.36 68.6512L1950.65 59.3664C1946.92 60.858 1943.6 63.0005 1940.71 65.7783L1947.65 72.9815ZM1954.48 68.6045C1956.96 67.5418 1959.64 66.9946 1962.58 66.9946V56.9946C1958.36 56.9946 1954.32 57.7902 1950.54 59.4131L1954.48 68.6045ZM1962.58 66.9946H2009.84V56.9946H1962.58V66.9946ZM2009.84 66.9946C2012.84 66.9946 2015.6 67.5756 2018.15 68.7121L2022.21 59.574C2018.33 57.846 2014.18 56.9946 2009.84 56.9946V66.9946ZM2018.26 68.7585C2020.88 69.8487 2023.07 71.3472 2024.91 73.2509L2032.11 66.3145C2029.29 63.3842 2025.94 61.123 2022.11 59.5277L2018.26 68.7585ZM2025.04 73.3843C2026.94 75.2175 2028.44 77.4144 2029.53 80.031L2038.76 76.1848C2037.17 72.3561 2034.91 69.0029 2031.98 66.1811L2025.04 73.3843ZM2029.58 80.1386C2030.72 82.6958 2031.3 85.4475 2031.3 88.4473H2041.3C2041.3 84.1066 2040.45 79.9653 2038.72 76.0772L2029.58 80.1386ZM2031.3 88.4473V205H2041.3V88.4473H2031.3ZM2106.66 88.4473V83.4473H2101.66V88.4473H2106.66ZM2106.66 178.547H2101.66V183.547H2106.66V178.547ZM2174.87 178.547V183.547H2179.87V178.547H2174.87ZM2174.87 154.377V149.377H2169.87V154.377H2174.87ZM2201.32 154.377H2206.32V149.377H2201.32V154.377ZM2199.18 188.887L2194.61 186.856L2194.58 186.91L2194.56 186.964L2199.18 188.887ZM2193.54 197.346L2197.07 200.882L2193.54 197.346ZM2185.21 202.986L2187.13 207.601L2187.19 207.579L2187.24 207.555L2185.21 202.986ZM2096.45 202.986L2094.42 207.555L2094.48 207.579L2094.53 207.601L2096.45 202.986ZM2087.99 197.346L2084.39 200.814L2084.46 200.882L2084.53 200.948L2087.99 197.346ZM2082.35 188.887L2077.74 190.81L2077.76 190.864L2077.78 190.917L2082.35 188.887ZM2082.35 78.1079L2077.78 76.0772L2077.76 76.1308L2077.74 76.1848L2082.35 78.1079ZM2087.99 69.7827L2084.46 66.2472L2087.99 69.7827ZM2096.45 64.1431L2098.38 68.7585L2098.43 68.7359L2098.48 68.7121L2096.45 64.1431ZM2185.21 64.1431L2183.18 68.7121L2183.23 68.7359L2183.29 68.7585L2185.21 64.1431ZM2193.54 69.7827L2189.93 73.2509L2190 73.3189L2190.07 73.3843L2193.54 69.7827ZM2199.18 78.1079L2194.56 80.031L2194.58 80.0851L2194.61 80.1386L2199.18 78.1079ZM2201.32 112.617V117.617H2206.32V112.617H2201.32ZM2174.87 112.617H2169.87V117.617H2174.87V112.617ZM2174.87 88.4473H2179.87V83.4473H2174.87V88.4473ZM2101.66 88.4473V178.547H2111.66V88.4473H2101.66ZM2106.66 183.547H2174.87V173.547H2106.66V183.547ZM2179.87 178.547V154.377H2169.87V178.547H2179.87ZM2174.87 159.377H2201.32V149.377H2174.87V159.377ZM2196.32 154.377V178.547H2206.32V154.377H2196.32ZM2196.32 178.547C2196.32 181.547 2195.74 184.299 2194.61 186.856L2203.74 190.917C2205.47 187.029 2206.32 182.888 2206.32 178.547H2196.32ZM2194.56 186.964C2193.46 189.597 2191.95 191.865 2190 193.811L2197.07 200.882C2199.96 197.993 2202.2 194.622 2203.79 190.81L2194.56 186.964ZM2190 193.811C2188.14 195.674 2185.88 197.216 2183.18 198.417L2187.24 207.555C2190.98 205.891 2194.28 203.673 2197.07 200.882L2190 193.811ZM2183.29 198.37C2180.71 199.446 2177.92 200 2174.87 200V210C2179.17 210 2183.27 209.211 2187.13 207.601L2183.29 198.37ZM2174.87 200H2106.66V210H2174.87V200ZM2106.66 200C2103.72 200 2100.97 199.453 2098.38 198.37L2094.53 207.601C2098.38 209.204 2102.43 210 2106.66 210V200ZM2098.48 198.417C2095.77 197.209 2093.44 195.648 2091.46 193.745L2084.53 200.948C2087.38 203.699 2090.7 205.898 2094.42 207.555L2098.48 198.417ZM2091.6 193.878C2089.69 191.901 2088.13 189.574 2086.92 186.856L2077.78 190.917C2079.44 194.644 2081.64 197.957 2084.39 200.814L2091.6 193.878ZM2086.97 186.964C2085.89 184.381 2085.34 181.592 2085.34 178.547H2075.34C2075.34 182.843 2076.13 186.947 2077.74 190.81L2086.97 186.964ZM2085.34 178.547V88.4473H2075.34V178.547H2085.34ZM2085.34 88.4473C2085.34 85.4027 2085.89 82.6133 2086.97 80.031L2077.74 76.1848C2076.13 80.0478 2075.34 84.1513 2075.34 88.4473H2085.34ZM2086.92 80.1386C2088.12 77.4364 2089.67 75.1816 2091.53 73.3182L2084.46 66.2472C2081.67 69.0388 2079.45 72.3341 2077.78 76.0772L2086.92 80.1386ZM2091.53 73.3182C2093.47 71.3731 2095.74 69.8555 2098.38 68.7585L2094.53 59.5277C2090.72 61.1161 2087.35 63.3584 2084.46 66.2472L2091.53 73.3182ZM2098.48 68.7121C2101.06 67.5684 2103.77 66.9946 2106.66 66.9946V56.9946C2102.39 56.9946 2098.29 57.8531 2094.42 59.574L2098.48 68.7121ZM2106.66 66.9946H2174.87V56.9946H2106.66V66.9946ZM2174.87 66.9946C2177.87 66.9946 2180.62 67.5756 2183.18 68.7121L2187.24 59.574C2183.35 57.846 2179.21 56.9946 2174.87 56.9946V66.9946ZM2183.29 68.7585C2185.9 69.8487 2188.1 71.3472 2189.93 73.2509L2197.14 66.3145C2194.32 63.3842 2190.96 61.123 2187.13 59.5277L2183.29 68.7585ZM2190.07 73.3843C2191.97 75.2175 2193.47 77.4144 2194.56 80.031L2203.79 76.1848C2202.2 72.3561 2199.93 69.0029 2197 66.1811L2190.07 73.3843ZM2194.61 80.1386C2195.74 82.6958 2196.32 85.4475 2196.32 88.4473H2206.32C2206.32 84.1066 2205.47 79.9653 2203.74 76.0772L2194.61 80.1386ZM2196.32 88.4473V112.617H2206.32V88.4473H2196.32ZM2201.32 107.617H2174.87V117.617H2201.32V107.617ZM2179.87 112.617V88.4473H2169.87V112.617H2179.87ZM2174.87 83.4473H2106.66V93.4473H2174.87V83.4473ZM2366.48 146.992V151.992H2371.48V146.992H2366.48ZM2271.82 146.992V141.992H2266.82V146.992H2271.82ZM2271.82 178.547H2266.82V183.547H2271.82V178.547ZM2366.48 178.547H2371.48V173.547H2366.48V178.547ZM2366.48 205V210H2371.48V205H2366.48ZM2261.61 202.986L2259.58 207.555L2259.64 207.579L2259.69 207.601L2261.61 202.986ZM2253.15 197.346L2249.55 200.814L2249.62 200.882L2249.69 200.948L2253.15 197.346ZM2247.52 188.887L2242.9 190.81L2242.92 190.864L2242.95 190.917L2247.52 188.887ZM2247.52 78.1079L2242.95 76.0772L2242.92 76.1308L2242.9 76.1848L2247.52 78.1079ZM2253.15 69.7827L2249.62 66.2472L2253.15 69.7827ZM2261.61 64.1431L2263.54 68.7585L2263.59 68.7359L2263.64 68.7121L2261.61 64.1431ZM2350.37 64.1431L2348.34 68.7121L2348.39 68.7359L2348.45 68.7585L2350.37 64.1431ZM2358.7 69.7827L2355.1 73.2509L2355.16 73.3189L2355.23 73.3843L2358.7 69.7827ZM2364.34 78.1079L2359.72 80.031L2359.74 80.0851L2359.77 80.1386L2364.34 78.1079ZM2271.82 88.4473V83.4473H2266.82V88.4473H2271.82ZM2271.82 120.54H2266.82V125.54H2271.82V120.54ZM2340.03 120.54V125.54H2345.03V120.54H2340.03ZM2340.03 88.4473H2345.03V83.4473H2340.03V88.4473ZM2366.48 141.992H2271.82V151.992H2366.48V141.992ZM2266.82 146.992V178.547H2276.82V146.992H2266.82ZM2271.82 183.547H2366.48V173.547H2271.82V183.547ZM2361.48 178.547V205H2371.48V178.547H2361.48ZM2366.48 200H2271.82V210H2366.48V200ZM2271.82 200C2268.88 200 2266.13 199.453 2263.54 198.37L2259.69 207.601C2263.54 209.204 2267.6 210 2271.82 210V200ZM2263.64 198.417C2260.93 197.209 2258.6 195.648 2256.62 193.745L2249.69 200.948C2252.54 203.699 2255.86 205.898 2259.58 207.555L2263.64 198.417ZM2256.76 193.878C2254.85 191.901 2253.29 189.574 2252.08 186.856L2242.95 190.917C2244.6 194.644 2246.8 197.957 2249.55 200.814L2256.76 193.878ZM2252.13 186.964C2251.05 184.381 2250.5 181.592 2250.5 178.547H2240.5C2240.5 182.843 2241.29 186.947 2242.9 190.81L2252.13 186.964ZM2250.5 178.547V88.4473H2240.5V178.547H2250.5ZM2250.5 88.4473C2250.5 85.4027 2251.05 82.6133 2252.13 80.031L2242.9 76.1848C2241.29 80.0478 2240.5 84.1513 2240.5 88.4473H2250.5ZM2252.08 80.1386C2253.29 77.4364 2254.83 75.1816 2256.69 73.3182L2249.62 66.2472C2246.83 69.0388 2244.61 72.3341 2242.95 76.0772L2252.08 80.1386ZM2256.69 73.3182C2258.64 71.3731 2260.9 69.8555 2263.54 68.7585L2259.69 59.5277C2255.88 61.1161 2252.51 63.3584 2249.62 66.2472L2256.69 73.3182ZM2263.64 68.7121C2266.22 67.5684 2268.93 66.9946 2271.82 66.9946V56.9946C2267.55 56.9946 2263.46 57.8531 2259.58 59.574L2263.64 68.7121ZM2271.82 66.9946H2340.03V56.9946H2271.82V66.9946ZM2340.03 66.9946C2343.03 66.9946 2345.78 67.5756 2348.34 68.7121L2352.4 59.574C2348.51 57.846 2344.37 56.9946 2340.03 56.9946V66.9946ZM2348.45 68.7585C2351.07 69.8487 2353.26 71.3472 2355.1 73.2509L2362.3 66.3145C2359.48 63.3842 2356.12 61.123 2352.29 59.5277L2348.45 68.7585ZM2355.23 73.3843C2357.13 75.2175 2358.63 77.4144 2359.72 80.031L2368.95 76.1848C2367.36 72.3561 2365.1 69.0029 2362.16 66.1811L2355.23 73.3843ZM2359.77 80.1386C2360.9 82.6958 2361.48 85.4475 2361.48 88.4473H2371.48C2371.48 84.1066 2370.63 79.9653 2368.91 76.0772L2359.77 80.1386ZM2361.48 88.4473V146.992H2371.48V88.4473H2361.48ZM2266.82 88.4473V120.54H2276.82V88.4473H2266.82ZM2271.82 125.54H2340.03V115.54H2271.82V125.54ZM2345.03 120.54V88.4473H2335.03V120.54H2345.03ZM2340.03 83.4473H2271.82V93.4473H2340.03V83.4473Z" fill="#00FFB2" fill-opacity="0.4"/>
<defs>
<filter id="filter0_b" x="-4" y="24" width="61.2274" height="61.3757" filterUnits="userSpaceOnUse" color-interpolation-filters="sRGB">
<feFlood flood-opacity="0" result="BackgroundImageFix"/>
<feGaussianBlur in="BackgroundImage" stdDeviation="2"/>
<feComposite in2="SourceAlpha" operator="in" result="effect1_backgroundBlur"/>
<feBlend mode="normal" in="SourceGraphic" in2="effect1_backgroundBlur" result="shape"/>
</filter>
<filter id="filter1_b" x="123.571" y="87.7852" width="61.2274" height="62.9675" filterUnits="userSpaceOnUse" color-interpolation-filters="sRGB">
<feFlood flood-opacity="0" result="BackgroundImageFix"/>
<feGaussianBlur in="BackgroundImage" stdDeviation="2"/>
<feComposite in2="SourceAlpha" operator="in" result="effect1_backgroundBlur"/>
<feBlend mode="normal" in="SourceGraphic" in2="effect1_backgroundBlur" result="shape"/>
</filter>
<filter id="filter2_b" x="123.571" y="152.69" width="61.2274" height="61.3757" filterUnits="userSpaceOnUse" color-interpolation-filters="sRGB">
<feFlood flood-opacity="0" result="BackgroundImageFix"/>
<feGaussianBlur in="BackgroundImage" stdDeviation="2"/>
<feComposite in2="SourceAlpha" operator="in" result="effect1_backgroundBlur"/>
<feBlend mode="normal" in="SourceGraphic" in2="effect1_backgroundBlur" result="shape"/>
</filter>
<filter id="filter3_b" x="59.7861" y="152.69" width="61.2274" height="61.3757" filterUnits="userSpaceOnUse" color-interpolation-filters="sRGB">
<feFlood flood-opacity="0" result="BackgroundImageFix"/>
<feGaussianBlur in="BackgroundImage" stdDeviation="2"/>
<feComposite in2="SourceAlpha" operator="in" result="effect1_backgroundBlur"/>
<feBlend mode="normal" in="SourceGraphic" in2="effect1_backgroundBlur" result="shape"/>
</filter>
<filter id="filter4_b" x="-4" y="152.69" width="61.2274" height="61.3757" filterUnits="userSpaceOnUse" color-interpolation-filters="sRGB">
<feFlood flood-opacity="0" result="BackgroundImageFix"/>
<feGaussianBlur in="BackgroundImage" stdDeviation="2"/>
<feComposite in2="SourceAlpha" operator="in" result="effect1_backgroundBlur"/>
<feBlend mode="normal" in="SourceGraphic" in2="effect1_backgroundBlur" result="shape"/>
</filter>
<filter id="filter5_b" x="-4" y="87.7852" width="61.2274" height="62.9675" filterUnits="userSpaceOnUse" color-interpolation-filters="sRGB">
<feFlood flood-opacity="0" result="BackgroundImageFix"/>
<feGaussianBlur in="BackgroundImage" stdDeviation="2"/>
<feComposite in2="SourceAlpha" operator="in" result="effect1_backgroundBlur"/>
<feBlend mode="normal" in="SourceGraphic" in2="effect1_backgroundBlur" result="shape"/>
</filter>
<filter id="filter6_b" x="186.201" y="24" width="62.7993" height="61.3757" filterUnits="userSpaceOnUse" color-interpolation-filters="sRGB">
<feFlood flood-opacity="0" result="BackgroundImageFix"/>
<feGaussianBlur in="BackgroundImage" stdDeviation="2"/>
<feComposite in2="SourceAlpha" operator="in" result="effect1_backgroundBlur"/>
<feBlend mode="normal" in="SourceGraphic" in2="effect1_backgroundBlur" result="shape"/>
</filter>
<filter id="filter7_b" x="123.324" y="24" width="61.2274" height="61.3757" filterUnits="userSpaceOnUse" color-interpolation-filters="sRGB">
<feFlood flood-opacity="0" result="BackgroundImageFix"/>
<feGaussianBlur in="BackgroundImage" stdDeviation="2"/>
<feComposite in2="SourceAlpha" operator="in" result="effect1_backgroundBlur"/>
<feBlend mode="normal" in="SourceGraphic" in2="effect1_backgroundBlur" result="shape"/>
</filter>
<filter id="filter8_b" x="59.7861" y="24" width="61.2274" height="61.3757" filterUnits="userSpaceOnUse" color-interpolation-filters="sRGB">
<feFlood flood-opacity="0" result="BackgroundImageFix"/>
<feGaussianBlur in="BackgroundImage" stdDeviation="2"/>
<feComposite in2="SourceAlpha" operator="in" result="effect1_backgroundBlur"/>
<feBlend mode="normal" in="SourceGraphic" in2="effect1_backgroundBlur" result="shape"/>
</filter>
</defs>
</svg>
