<svg width="200" height="200" viewBox="0 0 200 200" fill="none" xmlns="http://www.w3.org/2000/svg">
<rect width="200" height="200" rx="100" fill="#0A0B0D"/>
<path d="M26.4854 79.8182H37.484L49.1005 108.159H49.5948L61.2113 79.8182H72.2098V122H63.5593V94.5447H63.2091L52.2929 121.794H46.4023L35.4861 94.4418H35.136V122H26.4854V79.8182ZM86.5984 79.8182L96.7937 111.866H97.1851L107.401 79.8182H117.287L102.746 122H91.2532L76.6915 79.8182H86.5984ZM130.703 79.8182V122H121.784V79.8182H130.703ZM145.081 79.8182L155.276 111.866H155.668L165.884 79.8182H175.77L161.229 122H149.736L135.174 79.8182H145.081Z" fill="#46FFC8"/>
</svg>
