<svg width="101" height="100" viewBox="0 0 101 100" fill="none" xmlns="http://www.w3.org/2000/svg">
<rect x="0.362305" width="99.7181" height="99.7181" fill="#222222"/>
<path d="M28.87 46C28.8246 45.4318 28.6115 44.9886 28.2308 44.6705C27.8558 44.3523 27.2848 44.1932 26.5178 44.1932C26.0291 44.1932 25.6286 44.2528 25.3161 44.3722C25.0092 44.4858 24.782 44.642 24.6342 44.8409C24.4865 45.0398 24.4098 45.267 24.4041 45.5227C24.3928 45.733 24.4297 45.9233 24.5149 46.0938C24.6058 46.2585 24.7479 46.4091 24.9411 46.5455C25.1342 46.6761 25.3814 46.7955 25.6825 46.9034C25.9837 47.0114 26.3416 47.108 26.7564 47.1932L28.1882 47.5C29.1541 47.7045 29.9808 47.9744 30.6683 48.3097C31.3558 48.6449 31.9183 49.0398 32.3558 49.4943C32.7933 49.9432 33.1143 50.4489 33.3189 51.0114C33.5291 51.5739 33.6371 52.1875 33.6428 52.8523C33.6371 54 33.3501 54.9716 32.782 55.767C32.2138 56.5625 31.4013 57.1676 30.3445 57.5824C29.2933 57.9972 28.0291 58.2045 26.5518 58.2045C25.0348 58.2045 23.7109 57.9801 22.5803 57.5312C21.4553 57.0824 20.5803 56.392 19.9553 55.4602C19.3359 54.5227 19.0234 53.3239 19.0178 51.8636H23.5178C23.5462 52.3977 23.6797 52.8466 23.9183 53.2102C24.157 53.5739 24.4922 53.8494 24.924 54.0369C25.3615 54.2244 25.8814 54.3182 26.4837 54.3182C26.9893 54.3182 27.4126 54.2557 27.7536 54.1307C28.0945 54.0057 28.353 53.8324 28.5291 53.6108C28.7053 53.3892 28.7962 53.1364 28.8018 52.8523C28.7962 52.5852 28.7081 52.3523 28.5376 52.1534C28.3729 51.9489 28.1001 51.767 27.7195 51.608C27.3388 51.4432 26.8246 51.2898 26.1768 51.1477L24.4382 50.7727C22.8928 50.4375 21.674 49.8778 20.782 49.0938C19.8956 48.304 19.4553 47.2273 19.4609 45.8636C19.4553 44.7557 19.7507 43.7869 20.3473 42.9574C20.9496 42.1222 21.782 41.4716 22.8445 41.0057C23.9126 40.5398 25.1371 40.3068 26.5178 40.3068C27.9268 40.3068 29.1456 40.5426 30.174 41.0142C31.2024 41.4858 31.995 42.1506 32.5518 43.0085C33.1143 43.8608 33.3984 44.858 33.4041 46H28.87ZM42.1612 58H35.4453V40.5455H42.093C43.8885 40.5455 45.4396 40.8949 46.7464 41.5938C48.0589 42.2869 49.0703 43.2869 49.7805 44.5938C50.4964 45.8949 50.8544 47.4545 50.8544 49.2727C50.8544 51.0909 50.4993 52.6534 49.7891 53.9602C49.0788 55.2614 48.0732 56.2614 46.772 56.9602C45.4709 57.6534 43.9339 58 42.1612 58ZM40.1839 53.9773H41.9908C42.8544 53.9773 43.5902 53.8381 44.1982 53.5597C44.8118 53.2812 45.2777 52.8011 45.5959 52.1193C45.9197 51.4375 46.0817 50.4886 46.0817 49.2727C46.0817 48.0568 45.9169 47.108 45.5874 46.4261C45.2635 45.7443 44.7862 45.2642 44.1555 44.9858C43.5305 44.7074 42.7635 44.5682 41.8544 44.5682H40.1839V53.9773ZM53.0469 58V40.5455H57.7855V54.1818H64.8423V58H53.0469ZM66.7578 58V40.5455H74.2919C75.5874 40.5455 76.7209 40.7812 77.6925 41.2528C78.6641 41.7244 79.4197 42.4034 79.9595 43.2898C80.4993 44.1761 80.7692 45.2386 80.7692 46.4773C80.7692 47.7273 80.4908 48.7812 79.9339 49.6392C79.3828 50.4972 78.6072 51.1449 77.6072 51.5824C76.6129 52.0199 75.451 52.2386 74.1214 52.2386H69.6214V48.5568H73.1669C73.7237 48.5568 74.1982 48.4886 74.5902 48.3523C74.9879 48.2102 75.2919 47.9858 75.5021 47.679C75.718 47.3722 75.826 46.9716 75.826 46.4773C75.826 45.9773 75.718 45.571 75.5021 45.2585C75.2919 44.9403 74.9879 44.7074 74.5902 44.5597C74.1982 44.4062 73.7237 44.3295 73.1669 44.3295H71.4964V58H66.7578ZM76.9851 49.9886L81.3487 58H76.201L71.9396 49.9886H76.9851Z" fill="#00FFB2"/>
</svg>
