<svg width="101" height="100" viewBox="0 0 101 100" fill="none" xmlns="http://www.w3.org/2000/svg">
<rect x="0.681641" width="99.7181" height="99.7181" fill="#222222"/>
<path d="M38.0185 46C37.973 45.4318 37.7599 44.9886 37.3793 44.6705C37.0043 44.3523 36.4332 44.1932 35.6662 44.1932C35.1776 44.1932 34.777 44.2528 34.4645 44.3722C34.1577 44.4858 33.9304 44.642 33.7827 44.8409C33.6349 45.0398 33.5582 45.267 33.5526 45.5227C33.5412 45.733 33.5781 45.9233 33.6634 46.0938C33.7543 46.2585 33.8963 46.4091 34.0895 46.5455C34.2827 46.6761 34.5298 46.7955 34.831 46.9034C35.1321 47.0114 35.4901 47.108 35.9048 47.1932L37.3366 47.5C38.3026 47.7045 39.1293 47.9744 39.8168 48.3097C40.5043 48.6449 41.0668 49.0398 41.5043 49.4943C41.9418 49.9432 42.2628 50.4489 42.4673 51.0114C42.6776 51.5739 42.7855 52.1875 42.7912 52.8523C42.7855 54 42.4986 54.9716 41.9304 55.767C41.3622 56.5625 40.5497 57.1676 39.4929 57.5824C38.4418 57.9972 37.1776 58.2045 35.7003 58.2045C34.1832 58.2045 32.8594 57.9801 31.7287 57.5312C30.6037 57.0824 29.7287 56.392 29.1037 55.4602C28.4844 54.5227 28.1719 53.3239 28.1662 51.8636H32.6662C32.6946 52.3977 32.8281 52.8466 33.0668 53.2102C33.3054 53.5739 33.6406 53.8494 34.0724 54.0369C34.5099 54.2244 35.0298 54.3182 35.6321 54.3182C36.1378 54.3182 36.5611 54.2557 36.902 54.1307C37.2429 54.0057 37.5014 53.8324 37.6776 53.6108C37.8537 53.3892 37.9446 53.1364 37.9503 52.8523C37.9446 52.5852 37.8565 52.3523 37.6861 52.1534C37.5213 51.9489 37.2486 51.767 36.8679 51.608C36.4872 51.4432 35.973 51.2898 35.3253 51.1477L33.5866 50.7727C32.0412 50.4375 30.8224 49.8778 29.9304 49.0938C29.044 48.304 28.6037 47.2273 28.6094 45.8636C28.6037 44.7557 28.8991 43.7869 29.4957 42.9574C30.098 42.1222 30.9304 41.4716 31.9929 41.0057C33.0611 40.5398 34.2855 40.3068 35.6662 40.3068C37.0753 40.3068 38.294 40.5426 39.3224 41.0142C40.3509 41.4858 41.1435 42.1506 41.7003 43.0085C42.2628 43.8608 42.5469 44.858 42.5526 46H38.0185ZM44.5938 58V40.5455H56.8665V44.3636H49.3324V47.3636H56.1165V51.1818H49.3324V58H44.5938ZM58.6094 58V40.5455H66.1435C67.4389 40.5455 68.5724 40.7812 69.544 41.2528C70.5156 41.7244 71.2713 42.4034 71.8111 43.2898C72.3509 44.1761 72.6207 45.2386 72.6207 46.4773C72.6207 47.7273 72.3423 48.7812 71.7855 49.6392C71.2344 50.4972 70.4588 51.1449 69.4588 51.5824C68.4645 52.0199 67.3026 52.2386 65.973 52.2386H61.473V48.5568H65.0185C65.5753 48.5568 66.0497 48.4886 66.4418 48.3523C66.8395 48.2102 67.1435 47.9858 67.3537 47.679C67.5696 47.3722 67.6776 46.9716 67.6776 46.4773C67.6776 45.9773 67.5696 45.571 67.3537 45.2585C67.1435 44.9403 66.8395 44.7074 66.4418 44.5597C66.0497 44.4062 65.5753 44.3295 65.0185 44.3295H63.348V58H58.6094ZM68.8366 49.9886L73.2003 58H68.0526L63.7912 49.9886H68.8366Z" fill="#00FFB2"/>
</svg>
