<svg width="200" height="200" viewBox="0 0 200 200" fill="none" xmlns="http://www.w3.org/2000/svg">
<circle cx="100" cy="100" r="100" fill="#0A0B0D"/>
<path d="M42.9738 144V107.636H57.5335C60.2086 107.636 62.4399 108.033 64.2273 108.826C66.0148 109.619 67.3583 110.72 68.2579 112.129C69.1575 113.525 69.6073 115.135 69.6073 116.958C69.6073 118.379 69.3232 119.627 68.755 120.705C68.1869 121.77 67.4056 122.646 66.4113 123.332C65.4288 124.007 64.3043 124.487 63.0377 124.771V125.126C64.4227 125.185 65.7188 125.576 66.9262 126.298C68.1454 127.02 69.1338 128.032 69.8914 129.334C70.649 130.624 71.0278 132.163 71.0278 133.95C71.0278 135.88 70.5484 137.602 69.5896 139.117C68.6426 140.621 67.2399 141.81 65.3815 142.686C63.523 143.562 61.2326 144 58.51 144H42.9738ZM50.662 137.714H56.9298C59.0723 137.714 60.6348 137.306 61.6173 136.489C62.5997 135.661 63.091 134.56 63.091 133.187C63.091 132.181 62.8483 131.293 62.363 130.523C61.8777 129.754 61.1852 129.15 60.2856 128.712C59.3978 128.274 58.3384 128.055 57.1073 128.055H50.662V137.714ZM50.662 122.853H56.3616C57.4151 122.853 58.3502 122.67 59.167 122.303C59.9956 121.924 60.6466 121.391 61.1201 120.705C61.6054 120.018 61.8481 119.195 61.8481 118.237C61.8481 116.923 61.3805 115.863 60.4454 115.058C59.5221 114.253 58.2082 113.851 56.5036 113.851H50.662V122.853ZM82.1 107.636L90.8891 135.264H91.2265L100.033 107.636H108.556L96.0205 144H86.1128L73.5596 107.636H82.1ZM120.121 107.636V144H112.433V107.636H120.121ZM132.516 107.636L141.305 135.264H141.642L150.449 107.636H158.972L146.437 144H136.529L123.976 107.636H132.516Z" fill="#46FFC8"/>
<path d="M117.901 58.2214C118.691 52.9361 114.667 50.0949 109.165 48.1994L110.95 41.0399L106.592 39.9537L104.854 46.9247C103.708 46.6392 102.531 46.3698 101.362 46.103L103.112 39.0861L98.7567 38L96.9705 45.1571C96.0222 44.9411 95.0913 44.7276 94.1876 44.503L94.1926 44.4806L88.1824 42.9799L87.0231 47.6347C87.0231 47.6347 90.2565 48.3757 90.1883 48.4216C91.9534 48.8623 92.2724 50.0303 92.219 50.9563L90.1858 59.1126C90.3074 59.1437 90.4651 59.1883 90.6389 59.2578C90.4936 59.2219 90.3385 59.1821 90.1783 59.1437L87.3284 70.5695C87.1124 71.1057 86.565 71.91 85.3312 71.6047C85.3747 71.668 82.1635 70.814 82.1635 70.814L80 75.8026L85.6713 77.2164C86.7264 77.4808 87.7604 77.7576 88.7782 78.0183L86.9746 85.2598L91.3278 86.3459L93.1139 79.1813C94.3031 79.5041 95.4574 79.802 96.587 80.0825L94.807 87.2135L99.1651 88.2996L100.969 81.0718C108.4 82.4781 113.988 81.9109 116.34 75.1894C118.236 69.7775 116.246 66.6558 112.336 64.6201C115.184 63.9635 117.328 62.0904 117.901 58.2214ZM107.943 72.1843C106.597 77.5962 97.4844 74.6706 94.5302 73.937L96.9234 64.3433C99.8776 65.0806 109.351 66.5403 107.943 72.1843ZM109.291 58.1432C108.062 63.066 100.478 60.5649 98.0182 59.9517L100.188 51.2505C102.648 51.8637 110.571 53.0081 109.291 58.1432Z" fill="#46FFC8"/>
<circle cx="100" cy="100" r="100" fill="#0A0B0D"/>
<path d="M62.8468 118.094C62.7048 116.662 62.0952 115.549 61.018 114.756C59.9408 113.963 58.4789 113.567 56.6324 113.567C55.3776 113.567 54.3182 113.744 53.4541 114.099C52.59 114.443 51.9271 114.922 51.4655 115.538C51.0156 116.153 50.7907 116.852 50.7907 117.633C50.7671 118.284 50.9032 118.852 51.1991 119.337C51.5069 119.823 51.9271 120.243 52.4598 120.598C52.9924 120.941 53.608 121.243 54.3064 121.504C55.0048 121.752 55.7505 121.965 56.5436 122.143L59.8106 122.924C61.3968 123.279 62.8528 123.753 64.1785 124.344C65.5043 124.936 66.6525 125.664 67.6231 126.528C68.5938 127.393 69.3454 128.411 69.8781 129.582C70.4226 130.754 70.7008 132.098 70.7126 133.613C70.7008 135.838 70.1326 137.768 69.0081 139.401C67.8954 141.023 66.2855 142.284 64.1785 143.183C62.0834 144.071 59.5561 144.515 56.5968 144.515C53.6612 144.515 51.1044 144.065 48.9264 143.165C46.7602 142.266 45.0675 140.934 43.8483 139.17C42.6409 137.395 42.0076 135.199 41.9484 132.583H49.388C49.4709 133.802 49.8201 134.82 50.4356 135.637C51.063 136.442 51.8975 137.052 52.9392 137.466C53.9927 137.868 55.1823 138.07 56.5081 138.07C57.8101 138.07 58.9406 137.88 59.8994 137.501C60.87 137.123 61.6217 136.596 62.1544 135.921C62.687 135.246 62.9534 134.471 62.9534 133.595C62.9534 132.778 62.7107 132.092 62.2254 131.536C61.7519 130.979 61.0535 130.506 60.1302 130.115C59.2188 129.724 58.1002 129.369 56.7744 129.05L52.8149 128.055C49.7491 127.31 47.3284 126.144 45.5528 124.558C43.7772 122.971 42.8954 120.835 42.9072 118.148C42.8954 115.946 43.4813 114.022 44.665 112.377C45.8606 110.732 47.5 109.447 49.5833 108.524C51.6667 107.601 54.0341 107.139 56.6856 107.139C59.3845 107.139 61.7401 107.601 63.7524 108.524C65.7765 109.447 67.3509 110.732 68.4754 112.377C69.5999 114.022 70.1799 115.928 70.2155 118.094H62.8468ZM81.9536 107.636L90.7426 135.264H91.08L99.8868 107.636H108.41L95.874 144H85.9663L73.4131 107.636H81.9536ZM119.975 107.636V144H112.286V107.636H119.975ZM132.37 107.636L141.159 135.264H141.496L150.303 107.636H158.826L146.29 144H136.382L123.829 107.636H132.37Z" fill="#46FFC8"/>
<path d="M124.702 79.4739L116.462 88.3884C116.28 88.58 116.063 88.7327 115.821 88.8374C115.58 88.9421 115.32 88.9966 115.058 88.9978H75.9944C75.8025 89.0112 75.6112 88.9643 75.4469 88.8635C75.2826 88.7628 75.1532 88.6132 75.0767 88.4354C75.0002 88.2576 74.9803 88.0602 75.0197 87.8704C75.0591 87.6808 75.1559 87.5081 75.2968 87.3761L83.528 78.4709C83.7076 78.2763 83.9249 78.121 84.1665 78.0145C84.408 77.9081 84.6687 77.8528 84.9324 77.8522H123.996C124.188 77.8366 124.381 77.8819 124.547 77.9817C124.713 78.0817 124.844 78.2312 124.921 78.4096C124.999 78.5878 125.02 78.7862 124.981 78.977C124.941 79.1677 124.844 79.3414 124.702 79.4739ZM116.462 61.5416C116.282 61.3483 116.064 61.1944 115.823 61.0896C115.581 60.9848 115.321 60.9313 115.058 60.9323H75.9944C75.8025 60.9189 75.6112 60.9658 75.4469 61.0664C75.2826 61.1671 75.1532 61.3167 75.0767 61.4945C75.0002 61.6724 74.9803 61.8698 75.0197 62.0595C75.0591 62.2492 75.1559 62.422 75.2968 62.554L83.528 71.4592C83.7081 71.6525 83.9256 71.8063 84.1672 71.9111C84.4089 72.016 84.6693 72.0695 84.9324 72.0685H123.996C124.188 72.084 124.381 72.0388 124.547 71.9388C124.713 71.839 124.844 71.6895 124.921 71.5111C124.999 71.3327 125.02 71.1344 124.981 70.9437C124.941 70.753 124.844 70.5793 124.702 70.4468L116.462 61.5416ZM75.9944 55.1486H115.058C115.321 55.1478 115.582 55.0925 115.823 54.9861C116.065 54.8798 116.282 54.7244 116.462 54.5299L124.702 45.6247C124.844 45.4922 124.941 45.3185 124.981 45.1278C125.02 44.9371 124.999 44.7387 124.921 44.5604C124.844 44.382 124.713 44.2325 124.547 44.1326C124.381 44.0327 124.188 43.9874 123.996 44.003H84.9324C84.6697 44.0041 84.4099 44.0587 84.1685 44.1634C83.9273 44.2681 83.7094 44.4208 83.528 44.6123L75.2968 53.5269C75.1559 53.6589 75.0591 53.8317 75.0197 54.0213C74.9803 54.211 75.0002 54.4084 75.0767 54.5863C75.1532 54.7641 75.2826 54.9137 75.4469 55.0144C75.6112 55.1151 75.8025 55.162 75.9944 55.1486Z" fill="url(#paint0_linear_60_2)"/>
<defs>
<linearGradient id="paint0_linear_60_2" x1="79.2496" y1="90.0664" x2="120.579" y2="43.8464" gradientUnits="userSpaceOnUse">
<stop offset="0.08" stop-color="#46FFC8"/>
</linearGradient>
</defs>
</svg>
