<svg width="100" height="100" viewBox="0 0 100 100" fill="none" xmlns="http://www.w3.org/2000/svg">
<rect width="99.7181" height="99.7181" fill="#222222"/>
<path d="M26.6005 46C26.555 45.4318 26.342 44.9886 25.9613 44.6705C25.5863 44.3523 25.0153 44.1932 24.2482 44.1932C23.7596 44.1932 23.359 44.2528 23.0465 44.3722C22.7397 44.4858 22.5124 44.642 22.3647 44.8409C22.217 45.0398 22.1403 45.267 22.1346 45.5227C22.1232 45.733 22.1602 45.9233 22.2454 46.0938C22.3363 46.2585 22.4783 46.4091 22.6715 46.5455C22.8647 46.6761 23.1119 46.7955 23.413 46.9034C23.7141 47.0114 24.0721 47.108 24.4869 47.1932L25.9187 47.5C26.8846 47.7045 27.7113 47.9744 28.3988 48.3097C29.0863 48.6449 29.6488 49.0398 30.0863 49.4943C30.5238 49.9432 30.8448 50.4489 31.0494 51.0114C31.2596 51.5739 31.3675 52.1875 31.3732 52.8523C31.3675 54 31.0806 54.9716 30.5124 55.767C29.9442 56.5625 29.1317 57.1676 28.0749 57.5824C27.0238 57.9972 25.7596 58.2045 24.2823 58.2045C22.7653 58.2045 21.4414 57.9801 20.3107 57.5312C19.1857 57.0824 18.3107 56.392 17.6857 55.4602C17.0664 54.5227 16.7539 53.3239 16.7482 51.8636H21.2482C21.2766 52.3977 21.4102 52.8466 21.6488 53.2102C21.8874 53.5739 22.2227 53.8494 22.6545 54.0369C23.092 54.2244 23.6119 54.3182 24.2141 54.3182C24.7198 54.3182 25.1431 54.2557 25.484 54.1307C25.8249 54.0057 26.0835 53.8324 26.2596 53.6108C26.4357 53.3892 26.5266 53.1364 26.5323 52.8523C26.5266 52.5852 26.4386 52.3523 26.2681 52.1534C26.1033 51.9489 25.8306 51.767 25.4499 51.608C25.0692 51.4432 24.555 51.2898 23.9073 51.1477L22.1687 50.7727C20.6232 50.4375 19.4045 49.8778 18.5124 49.0938C17.6261 48.304 17.1857 47.2273 17.1914 45.8636C17.1857 44.7557 17.4812 43.7869 18.0778 42.9574C18.68 42.1222 19.5124 41.4716 20.5749 41.0057C21.6431 40.5398 22.8675 40.3068 24.2482 40.3068C25.6573 40.3068 26.8761 40.5426 27.9045 41.0142C28.9329 41.4858 29.7255 42.1506 30.2823 43.0085C30.8448 43.8608 31.1289 44.858 31.1346 46H26.6005ZM37.9485 40.5455L41.5281 52.8523H41.6644L45.244 40.5455H50.5962L44.8349 58H38.3576L32.5962 40.5455H37.9485ZM52.2773 58V40.5455H59.8114C61.1069 40.5455 62.2404 40.8011 63.212 41.3125C64.1836 41.8239 64.9393 42.5426 65.479 43.4688C66.0188 44.3949 66.2887 45.4773 66.2887 46.7159C66.2887 47.9659 66.0103 49.0483 65.4535 49.9631C64.9023 50.8778 64.1268 51.5824 63.1268 52.0767C62.1325 52.571 60.9705 52.8182 59.641 52.8182H55.141V49.1364H58.6864C59.2433 49.1364 59.7177 49.0398 60.1097 48.8466C60.5075 48.6477 60.8114 48.3665 61.0217 48.0028C61.2376 47.6392 61.3455 47.2102 61.3455 46.7159C61.3455 46.2159 61.2376 45.7898 61.0217 45.4375C60.8114 45.0795 60.5075 44.8068 60.1097 44.6193C59.7177 44.4261 59.2433 44.3295 58.6864 44.3295H57.016V58H52.2773ZM68.0273 58V40.5455H75.5614C76.8569 40.5455 77.9904 40.7812 78.962 41.2528C79.9336 41.7244 80.6893 42.4034 81.229 43.2898C81.7688 44.1761 82.0387 45.2386 82.0387 46.4773C82.0387 47.7273 81.7603 48.7812 81.2035 49.6392C80.6523 50.4972 79.8768 51.1449 78.8768 51.5824C77.8825 52.0199 76.7205 52.2386 75.391 52.2386H70.891V48.5568H74.4364C74.9933 48.5568 75.4677 48.4886 75.8597 48.3523C76.2575 48.2102 76.5614 47.9858 76.7717 47.679C76.9876 47.3722 77.0955 46.9716 77.0955 46.4773C77.0955 45.9773 76.9876 45.571 76.7717 45.2585C76.5614 44.9403 76.2575 44.7074 75.8597 44.5597C75.4677 44.4062 74.9933 44.3295 74.4364 44.3295H72.766V58H68.0273ZM78.2546 49.9886L82.6183 58H77.4705L73.2092 49.9886H78.2546Z" fill="#00FFB2"/>
</svg>
